<mxfile host="app.diagrams.net" agent="Mozilla/5.0 (Windows NT 10.0; Win64; x64) AppleWebKit/537.36 (KHTML, like Gecko) Chrome/131.0.0.0 Safari/537.36" version="25.0.3">
  <diagram name="第 1 页" id="b7EAQbjYyLEnIN-Ife5B">
    <mxGraphModel dx="2127" dy="-503" grid="1" gridSize="10" guides="1" tooltips="1" connect="1" arrows="1" fold="1" page="1" pageScale="1" pageWidth="827" pageHeight="1169" math="0" shadow="0">
      <root>
        <mxCell id="0" />
        <mxCell id="1" parent="0" />
        <UserObject label="" plantUmlData="{&#xa;  &quot;data&quot;: &quot;@startuml Music System ER Diagram\n\n&#39; 设置样式\nskinparam linetype ortho\nskinparam class {\n    BackgroundColor White\n    ArrowColor Black\n    BorderColor Black\n}\n\nentity \&quot;admin (管理员)\&quot; {\n    *id: int &lt;&lt;PK&gt;&gt; // 管理员ID\n    --\n    name: varchar(45) &lt;&lt;unique&gt;&gt; // 管理员用户名\n    password: varchar(45) // 管理员密码\n}\n\nentity \&quot;banner (轮播图)\&quot; {\n    *id: int &lt;&lt;PK&gt;&gt; // 轮播图ID\n    --\n    pic: varchar(255) // 轮播图片路径\n}\n\nentity \&quot;consumer (用户)\&quot; {\n    *id: int &lt;&lt;PK&gt;&gt; // 用户ID\n    --\n    username: varchar(255) &lt;&lt;unique&gt;&gt; // 用户名\n    password: varchar(100) // 密码\n    sex: tinyint // 性别(0女1男)\n    phone_num: char(15) &lt;&lt;unique&gt;&gt; // 电话\n    email: char(30) &lt;&lt;unique&gt;&gt; // 邮箱\n    birth: datetime // 生日\n    introduction: varchar(255) // 简介\n    location: varchar(45) // 地区\n    avator: varchar(255) // 头像\n    create_time: datetime // 创建时间\n    update_time: datetime // 更新时间\n}\n\nentity \&quot;collect (收藏)\&quot; {\n    *id: int &lt;&lt;PK&gt;&gt; // 收藏ID\n    --\n    user_id: int &lt;&lt;FK&gt;&gt; // 用户ID\n    type: tinyint // 收藏类型(0歌曲1歌单)\n    song_id: int &lt;&lt;FK&gt;&gt; // 歌曲ID\n    song_list_id: int &lt;&lt;FK&gt;&gt; // 歌单ID\n    create_time: datetime // 收藏时间\n}\n\nentity \&quot;comment (评论)\&quot; {\n    *id: int &lt;&lt;PK&gt;&gt; // 评论ID\n    --\n    user_id: int &lt;&lt;FK&gt;&gt; // 评论用户ID\n    song_id: int &lt;&lt;FK&gt;&gt; // 被评论歌曲ID\n    song_list_id: int &lt;&lt;FK&gt;&gt; // 被评论歌单ID\n    content: varchar(255) // 评论内容\n    create_time: datetime // 评论时间\n    type: tinyint // 评论类型(0歌曲1歌单)\n    up: int // 点赞数\n}\n\nentity \&quot;list_song (歌单包含歌曲)\&quot; {\n    *id: int &lt;&lt;PK&gt;&gt; // 主键ID\n    --\n    song_id: int &lt;&lt;FK&gt;&gt; // 歌曲ID\n    song_list_id: int &lt;&lt;FK&gt;&gt; // 歌单ID\n}\n\nentity \&quot;rank_list (用户对歌单评分)\&quot; {\n    *id: bigint &lt;&lt;PK&gt;&gt; // 评分ID\n    --\n    song_list_id: bigint &lt;&lt;FK&gt;&gt; // 歌单ID\n    consumer_id: bigint &lt;&lt;FK&gt;&gt; // 用户ID\n    score: int // 评分\n}\n\nentity \&quot;singer (歌手)\&quot; {\n    *id: int &lt;&lt;PK&gt;&gt; // 歌手ID\n    --\n    name: varchar(45) // 歌手名\n    sex: tinyint // 性别(0女1男2组合)\n    pic: varchar(255) // 歌手图片\n    birth: datetime // 生日\n    location: varchar(45) // 地区\n    introduction: varchar(255) // 简介\n}\n\nentity \&quot;song (歌曲)\&quot; {\n    *id: int &lt;&lt;PK&gt;&gt; // 歌曲ID\n    --\n    singer_id: int &lt;&lt;FK&gt;&gt; // 歌手ID\n    name: varchar(45) // 歌名\n    introduction: varchar(255) // 简介\n    create_time: datetime // 发行时间\n    update_time: datetime // 更新时间\n    pic: varchar(255) // 歌曲图片\n    lyric: text // 歌词\n    url: varchar(255) // 歌曲链接\n}\n\nentity \&quot;song_list (歌单)\&quot; {\n    *id: int &lt;&lt;PK&gt;&gt; // 歌单ID\n    --\n    title: varchar(255) // 标题\n    pic: varchar(255) // 歌单图片\n    introduction: text // 简介\n    style: varchar(10) // 风格\n}\n\nentity \&quot;user_support (用户点赞评论)\&quot; {\n    *id: int &lt;&lt;PK&gt;&gt; // 点赞ID\n    --\n    comment_id: int &lt;&lt;FK&gt;&gt; // 评论ID\n    user_id: varchar(45) &lt;&lt;FK&gt;&gt; // 用户ID\n}\n\n&#39; 关系连接说明\n&#39; ||--o{ 表示一对多关系\n&#39; }--{ 表示多对多关系\n\n&#39; 用户相关关系\nconsumer ||--o{ collect : \&quot;一个用户可以收藏多个歌曲/歌单\&quot;\nconsumer ||--o{ comment : \&quot;一个用户可以发表多个评论\&quot;\nconsumer ||--o{ rank_list : \&quot;一个用户可以给多个歌单评分\&quot;\nconsumer ||--o{ user_support : \&quot;一个用户可以点赞多个评论\&quot;\n\n&#39; 歌手与歌曲关系\nsinger ||--o{ song : \&quot;一个歌手可以有多首歌曲\&quot;\n\n&#39; 歌曲相关关系\nsong ||--o{ collect : \&quot;一首歌可以被多个用户收藏\&quot;\nsong ||--o{ comment : \&quot;一首歌可以有多个评论\&quot;\nsong ||--o{ list_song : \&quot;一首歌可以属于多个歌单\&quot;\n\n&#39; 歌单相关关系\nsong_list ||--o{ collect : \&quot;一个歌单可以被多个用户收藏\&quot;\nsong_list ||--o{ comment : \&quot;一个歌单可以有多个评论\&quot;\nsong_list ||--o{ list_song : \&quot;一个歌单可以包含多首歌曲\&quot;\nsong_list ||--o{ rank_list : \&quot;一个歌单可以被多个用户评分\&quot;\n\n&#39; 评论相关关系\ncomment ||--o{ user_support : \&quot;一个评论可以被多个用户点赞\&quot;\n\n@enduml&quot;,&#xa;  &quot;format&quot;: &quot;svg&quot;&#xa;}" id="w5bcRwH_5NocWy6zyWs9-1">
          <mxCell style="shape=image;noLabel=1;verticalAlign=top;aspect=fixed;imageAspect=0;image=data:image/svg+xml,PD94bWwgdmVyc2lvbj0iMS4wIiBlbmNvZGluZz0idXMtYXNjaWkiIHN0YW5kYWxvbmU9Im5vIj8+PHN2ZyB4bWxucz0iaHR0cDovL3d3dy53My5vcmcvMjAwMC9zdmciIHhtbG5zOnhsaW5rPSJodHRwOi8vd3d3LnczLm9yZy8xOTk5L3hsaW5rIiBjb250ZW50U3R5bGVUeXBlPSJ0ZXh0L2NzcyIgaGVpZ2h0PSI4MjFweCIgcHJlc2VydmVBc3BlY3RSYXRpbz0ibm9uZSIgc3R5bGU9IndpZHRoOjE3ODVweDtoZWlnaHQ6ODIxcHg7YmFja2dyb3VuZDojRkZGRkZGOyIgdmVyc2lvbj0iMS4xIiB2aWV3Qm94PSIwIDAgMTc4NSA4MjEiIHdpZHRoPSIxNzg1cHgiIHpvb21BbmRQYW49Im1hZ25pZnkiPjxkZWZzLz48Zz48IS0tY2xhc3MgYWRtaW4gKD8/PyktLT48ZyBpZD0iZWxlbV9hZG1pbiAoJiMzMTY0OTsmIzI5NzAyOyYjMjE1OTI7KSI+PHJlY3QgY29kZUxpbmU9IjkiIGZpbGw9IiNGRkZGRkYiIGhlaWdodD0iOTIuOTUzMSIgaWQ9ImFkbWluICgmIzMxNjQ5OyYjMjk3MDI7JiMyMTU5MjspIiByeD0iMi41IiByeT0iMi41IiBzdHlsZT0ic3Ryb2tlOiMwMDAwMDA7c3Ryb2tlLXdpZHRoOjAuNTsiIHdpZHRoPSIzMTEiIHg9IjciIHk9Ijc0LjUiLz48ZWxsaXBzZSBjeD0iMTA3Ljc1IiBjeT0iOTAuNSIgZmlsbD0iI0FERDFCMiIgcng9IjExIiByeT0iMTEiIHN0eWxlPSJzdHJva2U6IzE4MTgxODtzdHJva2Utd2lkdGg6MS4wOyIvPjxwYXRoIGQ9Ik0xMTEuMzc1LDk2LjUgTDExMS4zNzUsOTQuNzUgTDEwNi4wNjI1LDk0Ljc1IFExMDYuMDYyNSw5NC43NSAxMDYuMDYyNSw5MS4xODc1IEwxMTAuMzEyNSw5MS4xODc1IEwxMTAuMzEyNSw4OS40Mzc1IEwxMDYuMDYyNSw4OS40Mzc1IEwxMDYuMDYyNSw4Ni45Mzc1IEwxMTEuMzc1LDg2LjkzNzUgTDExMS4zNzUsODUuMTg3NSBMMTA0LjMxMjUsODUuMTg3NSBRMTA0LjMxMjUsODUuMTg3NSAxMDQuMzEyNSw5Ni41IEwxMTEuMzc1LDk2LjUgWiAiIGZpbGw9IiMwMDAwMDAiLz48dGV4dCBmaWxsPSIjMDAwMDAwIiBmb250LWZhbWlseT0ic2Fucy1zZXJpZiIgZm9udC1zaXplPSIxNCIgbGVuZ3RoQWRqdXN0PSJzcGFjaW5nIiB0ZXh0TGVuZ3RoPSIxMDEiIHg9IjEyOC4yNSIgeT0iOTYuMjQyMiI+YWRtaW4gKCYjMzE2NDk7JiMyOTcwMjsmIzIxNTkyOyk8L3RleHQ+PGxpbmUgc3R5bGU9InN0cm9rZTojMDAwMDAwO3N0cm9rZS13aWR0aDowLjU7IiB4MT0iOCIgeDI9IjMxNyIgeTE9IjEwNi41IiB5Mj0iMTA2LjUiLz48ZWxsaXBzZSBjeD0iMTgiIGN5PSIxMTkuNDkyMiIgZmlsbD0iIzAwMDAwMCIgcng9IjMiIHJ5PSIzIiBzdHlsZT0ic3Ryb2tlOiMwMDAwMDA7c3Ryb2tlLXdpZHRoOjEuMDsiLz48dGV4dCBmaWxsPSIjMDAwMDAwIiBmb250LWZhbWlseT0ic2Fucy1zZXJpZiIgZm9udC1zaXplPSIxNCIgbGVuZ3RoQWRqdXN0PSJzcGFjaW5nIiB0ZXh0TGVuZ3RoPSIxNzAiIHg9IjI3IiB5PSIxMjMuNzM0NCI+aWQ6IGludCAmIzE3MTtQSyYjMTg3OyAvLyAmIzMxNjQ5OyYjMjk3MDI7JiMyMTU5MjtJRDwvdGV4dD48bGluZSBzdHlsZT0ic3Ryb2tlOiMwMDAwMDA7c3Ryb2tlLXdpZHRoOjEuMDsiIHgxPSI4IiB4Mj0iMzE3IiB5MT0iMTI5LjQ4NDQiIHkyPSIxMjkuNDg0NCIvPjx0ZXh0IGZpbGw9IiMwMDAwMDAiIGZvbnQtZmFtaWx5PSJzYW5zLXNlcmlmIiBmb250LXNpemU9IjE0IiBsZW5ndGhBZGp1c3Q9InNwYWNpbmciIHRleHRMZW5ndGg9IjI5OSIgeD0iMTMiIHk9IjE0Ni43MTg4Ij5uYW1lOiB2YXJjaGFyKDQ1KSAmIzE3MTt1bmlxdWUmIzE4NzsgLy8gJiMzMTY0OTsmIzI5NzAyOyYjMjE1OTI7JiMyOTk5MjsmIzI1MTQzOyYjMjE1MTc7PC90ZXh0Pjx0ZXh0IGZpbGw9IiMwMDAwMDAiIGZvbnQtZmFtaWx5PSJzYW5zLXNlcmlmIiBmb250LXNpemU9IjE0IiBsZW5ndGhBZGp1c3Q9InNwYWNpbmciIHRleHRMZW5ndGg9IjI0OCIgeD0iMTMiIHk9IjE2MS43MDMxIj5wYXNzd29yZDogdmFyY2hhcig0NSkgLy8gJiMzMTY0OTsmIzI5NzAyOyYjMjE1OTI7JiMyMzQ5NDsmIzMwNzIxOzwvdGV4dD48L2c+PCEtLWNsYXNzIGJhbm5lciAoPz8/KS0tPjxnIGlkPSJlbGVtX2Jhbm5lciAoJiMzNjcxODsmIzI1NzczOyYjMjIyNzA7KSI+PHJlY3QgY29kZUxpbmU9IjE2IiBmaWxsPSIjRkZGRkZGIiBoZWlnaHQ9Ijc3Ljk2ODgiIGlkPSJiYW5uZXIgKCYjMzY3MTg7JiMyNTc3MzsmIzIyMjcwOykiIHJ4PSIyLjUiIHJ5PSIyLjUiIHN0eWxlPSJzdHJva2U6IzAwMDAwMDtzdHJva2Utd2lkdGg6MC41OyIgd2lkdGg9IjI0NSIgeD0iMzUzIiB5PSI4MiIvPjxlbGxpcHNlIGN4PSI0MTcuNzUiIGN5PSI5OCIgZmlsbD0iI0FERDFCMiIgcng9IjExIiByeT0iMTEiIHN0eWxlPSJzdHJva2U6IzE4MTgxODtzdHJva2Utd2lkdGg6MS4wOyIvPjxwYXRoIGQ9Ik00MjEuMzc1LDEwNCBMNDIxLjM3NSwxMDIuMjUgTDQxNi4wNjI1LDEwMi4yNSBRNDE2LjA2MjUsMTAyLjI1IDQxNi4wNjI1LDk4LjY4NzUgTDQyMC4zMTI1LDk4LjY4NzUgTDQyMC4zMTI1LDk2LjkzNzUgTDQxNi4wNjI1LDk2LjkzNzUgTDQxNi4wNjI1LDk0LjQzNzUgTDQyMS4zNzUsOTQuNDM3NSBMNDIxLjM3NSw5Mi42ODc1IEw0MTQuMzEyNSw5Mi42ODc1IFE0MTQuMzEyNSw5Mi42ODc1IDQxNC4zMTI1LDEwNCBMNDIxLjM3NSwxMDQgWiAiIGZpbGw9IiMwMDAwMDAiLz48dGV4dCBmaWxsPSIjMDAwMDAwIiBmb250LWZhbWlseT0ic2Fucy1zZXJpZiIgZm9udC1zaXplPSIxNCIgbGVuZ3RoQWRqdXN0PSJzcGFjaW5nIiB0ZXh0TGVuZ3RoPSIxMDciIHg9IjQzOC4yNSIgeT0iMTAzLjc0MjIiPmJhbm5lciAoJiMzNjcxODsmIzI1NzczOyYjMjIyNzA7KTwvdGV4dD48bGluZSBzdHlsZT0ic3Ryb2tlOiMwMDAwMDA7c3Ryb2tlLXdpZHRoOjAuNTsiIHgxPSIzNTQiIHgyPSI1OTciIHkxPSIxMTQiIHkyPSIxMTQiLz48ZWxsaXBzZSBjeD0iMzY0IiBjeT0iMTI2Ljk5MjIiIGZpbGw9IiMwMDAwMDAiIHJ4PSIzIiByeT0iMyIgc3R5bGU9InN0cm9rZTojMDAwMDAwO3N0cm9rZS13aWR0aDoxLjA7Ii8+PHRleHQgZmlsbD0iIzAwMDAwMCIgZm9udC1mYW1pbHk9InNhbnMtc2VyaWYiIGZvbnQtc2l6ZT0iMTQiIGxlbmd0aEFkanVzdD0ic3BhY2luZyIgdGV4dExlbmd0aD0iMTcwIiB4PSIzNzMiIHk9IjEzMS4yMzQ0Ij5pZDogaW50ICYjMTcxO1BLJiMxODc7IC8vICYjMzY3MTg7JiMyNTc3MzsmIzIyMjcwO0lEPC90ZXh0PjxsaW5lIHN0eWxlPSJzdHJva2U6IzAwMDAwMDtzdHJva2Utd2lkdGg6MS4wOyIgeDE9IjM1NCIgeDI9IjU5NyIgeTE9IjEzNi45ODQ0IiB5Mj0iMTM2Ljk4NDQiLz48dGV4dCBmaWxsPSIjMDAwMDAwIiBmb250LWZhbWlseT0ic2Fucy1zZXJpZiIgZm9udC1zaXplPSIxNCIgbGVuZ3RoQWRqdXN0PSJzcGFjaW5nIiB0ZXh0TGVuZ3RoPSIyMzMiIHg9IjM1OSIgeT0iMTU0LjIxODgiPnBpYzogdmFyY2hhcigyNTUpIC8vICYjMzY3MTg7JiMyNTc3MzsmIzIyMjcwOyYjMjkyNTU7JiMzNjMzNTsmIzI0NDUyOzwvdGV4dD48L2c+PCEtLWNsYXNzIGNvbnN1bWVyICg/PyktLT48ZyBpZD0iZWxlbV9jb25zdW1lciAoJiMyOTk5MjsmIzI1MTQzOykiPjxyZWN0IGNvZGVMaW5lPSIyMiIgZmlsbD0iI0ZGRkZGRiIgaGVpZ2h0PSIyMjcuODEyNSIgaWQ9ImNvbnN1bWVyICgmIzI5OTkyOyYjMjUxNDM7KSIgcng9IjIuNSIgcnk9IjIuNSIgc3R5bGU9InN0cm9rZTojMDAwMDAwO3N0cm9rZS13aWR0aDowLjU7IiB3aWR0aD0iMzA0IiB4PSI2MzMuNSIgeT0iNyIvPjxlbGxpcHNlIGN4PSI3MjcuMjUiIGN5PSIyMyIgZmlsbD0iI0FERDFCMiIgcng9IjExIiByeT0iMTEiIHN0eWxlPSJzdHJva2U6IzE4MTgxODtzdHJva2Utd2lkdGg6MS4wOyIvPjxwYXRoIGQ9Ik03MzAuODc1LDI5IEw3MzAuODc1LDI3LjI1IEw3MjUuNTYyNSwyNy4yNSBRNzI1LjU2MjUsMjcuMjUgNzI1LjU2MjUsMjMuNjg3NSBMNzI5LjgxMjUsMjMuNjg3NSBMNzI5LjgxMjUsMjEuOTM3NSBMNzI1LjU2MjUsMjEuOTM3NSBMNzI1LjU2MjUsMTkuNDM3NSBMNzMwLjg3NSwxOS40Mzc1IEw3MzAuODc1LDE3LjY4NzUgTDcyMy44MTI1LDE3LjY4NzUgUTcyMy44MTI1LDE3LjY4NzUgNzIzLjgxMjUsMjkgTDczMC44NzUsMjkgWiAiIGZpbGw9IiMwMDAwMDAiLz48dGV4dCBmaWxsPSIjMDAwMDAwIiBmb250LWZhbWlseT0ic2Fucy1zZXJpZiIgZm9udC1zaXplPSIxNCIgbGVuZ3RoQWRqdXN0PSJzcGFjaW5nIiB0ZXh0TGVuZ3RoPSIxMDgiIHg9Ijc0Ny43NSIgeT0iMjguNzQyMiI+Y29uc3VtZXIgKCYjMjk5OTI7JiMyNTE0MzspPC90ZXh0PjxsaW5lIHN0eWxlPSJzdHJva2U6IzAwMDAwMDtzdHJva2Utd2lkdGg6MC41OyIgeDE9IjYzNC41IiB4Mj0iOTM2LjUiIHkxPSIzOSIgeTI9IjM5Ii8+PGVsbGlwc2UgY3g9IjY0NC41IiBjeT0iNTEuOTkyMiIgZmlsbD0iIzAwMDAwMCIgcng9IjMiIHJ5PSIzIiBzdHlsZT0ic3Ryb2tlOiMwMDAwMDA7c3Ryb2tlLXdpZHRoOjEuMDsiLz48dGV4dCBmaWxsPSIjMDAwMDAwIiBmb250LWZhbWlseT0ic2Fucy1zZXJpZiIgZm9udC1zaXplPSIxNCIgbGVuZ3RoQWRqdXN0PSJzcGFjaW5nIiB0ZXh0TGVuZ3RoPSIxNTYiIHg9IjY1My41IiB5PSI1Ni4yMzQ0Ij5pZDogaW50ICYjMTcxO1BLJiMxODc7IC8vICYjMjk5OTI7JiMyNTE0MztJRDwvdGV4dD48bGluZSBzdHlsZT0ic3Ryb2tlOiMwMDAwMDA7c3Ryb2tlLXdpZHRoOjEuMDsiIHgxPSI2MzQuNSIgeDI9IjkzNi41IiB5MT0iNjEuOTg0NCIgeTI9IjYxLjk4NDQiLz48dGV4dCBmaWxsPSIjMDAwMDAwIiBmb250LWZhbWlseT0ic2Fucy1zZXJpZiIgZm9udC1zaXplPSIxNCIgbGVuZ3RoQWRqdXN0PSJzcGFjaW5nIiB0ZXh0TGVuZ3RoPSIyOTIiIHg9IjYzOS41IiB5PSI3OS4yMTg4Ij51c2VybmFtZTogdmFyY2hhcigyNTUpICYjMTcxO3VuaXF1ZSYjMTg3OyAvLyAmIzI5OTkyOyYjMjUxNDM7JiMyMTUxNzs8L3RleHQ+PHRleHQgZmlsbD0iIzAwMDAwMCIgZm9udC1mYW1pbHk9InNhbnMtc2VyaWYiIGZvbnQtc2l6ZT0iMTQiIGxlbmd0aEFkanVzdD0ic3BhY2luZyIgdGV4dExlbmd0aD0iMjEzIiB4PSI2MzkuNSIgeT0iOTQuMjAzMSI+cGFzc3dvcmQ6IHZhcmNoYXIoMTAwKSAvLyAmIzIzNDk0OyYjMzA3MjE7PC90ZXh0Pjx0ZXh0IGZpbGw9IiMwMDAwMDAiIGZvbnQtZmFtaWx5PSJzYW5zLXNlcmlmIiBmb250LXNpemU9IjE0IiBsZW5ndGhBZGp1c3Q9InNwYWNpbmciIHRleHRMZW5ndGg9IjE5OCIgeD0iNjM5LjUiIHk9IjEwOS4xODc1Ij5zZXg6IHRpbnlpbnQgLy8gJiMyNDYxNTsmIzIxMDM1OygwJiMyMjg5OTsxJiMzMDAwNzspPC90ZXh0Pjx0ZXh0IGZpbGw9IiMwMDAwMDAiIGZvbnQtZmFtaWx5PSJzYW5zLXNlcmlmIiBmb250LXNpemU9IjE0IiBsZW5ndGhBZGp1c3Q9InNwYWNpbmciIHRleHRMZW5ndGg9IjI1NyIgeD0iNjM5LjUiIHk9IjEyNC4xNzE5Ij5waG9uZV9udW06IGNoYXIoMTUpICYjMTcxO3VuaXF1ZSYjMTg3OyAvLyAmIzMwMDA1OyYjMzU4MDU7PC90ZXh0Pjx0ZXh0IGZpbGw9IiMwMDAwMDAiIGZvbnQtZmFtaWx5PSJzYW5zLXNlcmlmIiBmb250LXNpemU9IjE0IiBsZW5ndGhBZGp1c3Q9InNwYWNpbmciIHRleHRMZW5ndGg9IjIyOSIgeD0iNjM5LjUiIHk9IjEzOS4xNTYzIj5lbWFpbDogY2hhcigzMCkgJiMxNzE7dW5pcXVlJiMxODc7IC8vICYjMzcwMzg7JiMzMTY2NTs8L3RleHQ+PHRleHQgZmlsbD0iIzAwMDAwMCIgZm9udC1mYW1pbHk9InNhbnMtc2VyaWYiIGZvbnQtc2l6ZT0iMTQiIGxlbmd0aEFkanVzdD0ic3BhY2luZyIgdGV4dExlbmd0aD0iMTYyIiB4PSI2MzkuNSIgeT0iMTU0LjE0MDYiPmJpcnRoOiBkYXRldGltZSAvLyAmIzI5OTgzOyYjMjYwODU7PC90ZXh0Pjx0ZXh0IGZpbGw9IiMwMDAwMDAiIGZvbnQtZmFtaWx5PSJzYW5zLXNlcmlmIiBmb250LXNpemU9IjE0IiBsZW5ndGhBZGp1c3Q9InNwYWNpbmciIHRleHRMZW5ndGg9IjI0MCIgeD0iNjM5LjUiIHk9IjE2OS4xMjUiPmludHJvZHVjdGlvbjogdmFyY2hhcigyNTUpIC8vICYjMzE2MTY7JiMyMDE3MTs8L3RleHQ+PHRleHQgZmlsbD0iIzAwMDAwMCIgZm9udC1mYW1pbHk9InNhbnMtc2VyaWYiIGZvbnQtc2l6ZT0iMTQiIGxlbmd0aEFkanVzdD0ic3BhY2luZyIgdGV4dExlbmd0aD0iMjA1IiB4PSI2MzkuNSIgeT0iMTg0LjEwOTQiPmxvY2F0aW9uOiB2YXJjaGFyKDQ1KSAvLyAmIzIyMzIwOyYjMjEzMDY7PC90ZXh0Pjx0ZXh0IGZpbGw9IiMwMDAwMDAiIGZvbnQtZmFtaWx5PSJzYW5zLXNlcmlmIiBmb250LXNpemU9IjE0IiBsZW5ndGhBZGp1c3Q9InNwYWNpbmciIHRleHRMZW5ndGg9IjE5OCIgeD0iNjM5LjUiIHk9IjE5OS4wOTM4Ij5hdmF0b3I6IHZhcmNoYXIoMjU1KSAvLyAmIzIyODM2OyYjMjA2ODc7PC90ZXh0Pjx0ZXh0IGZpbGw9IiMwMDAwMDAiIGZvbnQtZmFtaWx5PSJzYW5zLXNlcmlmIiBmb250LXNpemU9IjE0IiBsZW5ndGhBZGp1c3Q9InNwYWNpbmciIHRleHRMZW5ndGg9IjIzMyIgeD0iNjM5LjUiIHk9IjIxNC4wNzgxIj5jcmVhdGVfdGltZTogZGF0ZXRpbWUgLy8gJiMyMTAxOTsmIzI0MzE0OyYjMjYxMDI7JiMzODM4ODs8L3RleHQ+PHRleHQgZmlsbD0iIzAwMDAwMCIgZm9udC1mYW1pbHk9InNhbnMtc2VyaWYiIGZvbnQtc2l6ZT0iMTQiIGxlbmd0aEFkanVzdD0ic3BhY2luZyIgdGV4dExlbmd0aD0iMjMzIiB4PSI2MzkuNSIgeT0iMjI5LjA2MjUiPnVwZGF0ZV90aW1lOiBkYXRldGltZSAvLyAmIzI2MzU2OyYjMjYwMzI7JiMyNjEwMjsmIzM4Mzg4OzwvdGV4dD48L2c+PCEtLWNsYXNzIGNvbGxlY3QgKD8/KS0tPjxnIGlkPSJlbGVtX2NvbGxlY3QgKCYjMjU5MTA7JiMzNDI1NTspIj48cmVjdCBjb2RlTGluZT0iMzgiIGZpbGw9IiNGRkZGRkYiIGhlaWdodD0iMTM3LjkwNjMiIGlkPSJjb2xsZWN0ICgmIzI1OTEwOyYjMzQyNTU7KSIgcng9IjIuNSIgcnk9IjIuNSIgc3R5bGU9InN0cm9rZTojMDAwMDAwO3N0cm9rZS13aWR0aDowLjU7IiB3aWR0aD0iMjczIiB4PSI5NzMiIHk9IjUyIi8+PGVsbGlwc2UgY3g9IjEwNTUuMjUiIGN5PSI2OCIgZmlsbD0iI0FERDFCMiIgcng9IjExIiByeT0iMTEiIHN0eWxlPSJzdHJva2U6IzE4MTgxODtzdHJva2Utd2lkdGg6MS4wOyIvPjxwYXRoIGQ9Ik0xMDU4Ljg3NSw3NCBMMTA1OC44NzUsNzIuMjUgTDEwNTMuNTYyNSw3Mi4yNSBRMTA1My41NjI1LDcyLjI1IDEwNTMuNTYyNSw2OC42ODc1IEwxMDU3LjgxMjUsNjguNjg3NSBMMTA1Ny44MTI1LDY2LjkzNzUgTDEwNTMuNTYyNSw2Ni45Mzc1IEwxMDUzLjU2MjUsNjQuNDM3NSBMMTA1OC44NzUsNjQuNDM3NSBMMTA1OC44NzUsNjIuNjg3NSBMMTA1MS44MTI1LDYyLjY4NzUgUTEwNTEuODEyNSw2Mi42ODc1IDEwNTEuODEyNSw3NCBMMTA1OC44NzUsNzQgWiAiIGZpbGw9IiMwMDAwMDAiLz48dGV4dCBmaWxsPSIjMDAwMDAwIiBmb250LWZhbWlseT0ic2Fucy1zZXJpZiIgZm9udC1zaXplPSIxNCIgbGVuZ3RoQWRqdXN0PSJzcGFjaW5nIiB0ZXh0TGVuZ3RoPSIxMDAiIHg9IjEwNzUuNzUiIHk9IjczLjc0MjIiPmNvbGxlY3QgKCYjMjU5MTA7JiMzNDI1NTspPC90ZXh0PjxsaW5lIHN0eWxlPSJzdHJva2U6IzAwMDAwMDtzdHJva2Utd2lkdGg6MC41OyIgeDE9Ijk3NCIgeDI9IjEyNDUiIHkxPSI4NCIgeTI9Ijg0Ii8+PGVsbGlwc2UgY3g9Ijk4NCIgY3k9Ijk2Ljk5MjIiIGZpbGw9IiMwMDAwMDAiIHJ4PSIzIiByeT0iMyIgc3R5bGU9InN0cm9rZTojMDAwMDAwO3N0cm9rZS13aWR0aDoxLjA7Ii8+PHRleHQgZmlsbD0iIzAwMDAwMCIgZm9udC1mYW1pbHk9InNhbnMtc2VyaWYiIGZvbnQtc2l6ZT0iMTQiIGxlbmd0aEFkanVzdD0ic3BhY2luZyIgdGV4dExlbmd0aD0iMTU2IiB4PSI5OTMiIHk9IjEwMS4yMzQ0Ij5pZDogaW50ICYjMTcxO1BLJiMxODc7IC8vICYjMjU5MTA7JiMzNDI1NTtJRDwvdGV4dD48bGluZSBzdHlsZT0ic3Ryb2tlOiMwMDAwMDA7c3Ryb2tlLXdpZHRoOjEuMDsiIHgxPSI5NzQiIHgyPSIxMjQ1IiB5MT0iMTA2Ljk4NDQiIHkyPSIxMDYuOTg0NCIvPjx0ZXh0IGZpbGw9IiMwMDAwMDAiIGZvbnQtZmFtaWx5PSJzYW5zLXNlcmlmIiBmb250LXNpemU9IjE0IiBsZW5ndGhBZGp1c3Q9InNwYWNpbmciIHRleHRMZW5ndGg9IjE5MSIgeD0iOTc5IiB5PSIxMjQuMjE4OCI+dXNlcl9pZDogaW50ICYjMTcxO0ZLJiMxODc7IC8vICYjMjk5OTI7JiMyNTE0MztJRDwvdGV4dD48dGV4dCBmaWxsPSIjMDAwMDAwIiBmb250LWZhbWlseT0ic2Fucy1zZXJpZiIgZm9udC1zaXplPSIxNCIgbGVuZ3RoQWRqdXN0PSJzcGFjaW5nIiB0ZXh0TGVuZ3RoPSIyNjEiIHg9Ijk3OSIgeT0iMTM5LjIwMzEiPnR5cGU6IHRpbnlpbnQgLy8gJiMyNTkxMDsmIzM0MjU1OyYjMzE4Njc7JiMyMjQxMTsoMCYjMjc0Njg7JiMyNjM1NDsxJiMyNzQ2ODsmIzIxMzMzOyk8L3RleHQ+PHRleHQgZmlsbD0iIzAwMDAwMCIgZm9udC1mYW1pbHk9InNhbnMtc2VyaWYiIGZvbnQtc2l6ZT0iMTQiIGxlbmd0aEFkanVzdD0ic3BhY2luZyIgdGV4dExlbmd0aD0iMTkxIiB4PSI5NzkiIHk9IjE1NC4xODc1Ij5zb25nX2lkOiBpbnQgJiMxNzE7RksmIzE4NzsgLy8gJiMyNzQ2ODsmIzI2MzU0O0lEPC90ZXh0Pjx0ZXh0IGZpbGw9IiMwMDAwMDAiIGZvbnQtZmFtaWx5PSJzYW5zLXNlcmlmIiBmb250LXNpemU9IjE0IiBsZW5ndGhBZGp1c3Q9InNwYWNpbmciIHRleHRMZW5ndGg9IjIyNiIgeD0iOTc5IiB5PSIxNjkuMTcxOSI+c29uZ19saXN0X2lkOiBpbnQgJiMxNzE7RksmIzE4NzsgLy8gJiMyNzQ2ODsmIzIxMzMzO0lEPC90ZXh0Pjx0ZXh0IGZpbGw9IiMwMDAwMDAiIGZvbnQtZmFtaWx5PSJzYW5zLXNlcmlmIiBmb250LXNpemU9IjE0IiBsZW5ndGhBZGp1c3Q9InNwYWNpbmciIHRleHRMZW5ndGg9IjIzMyIgeD0iOTc5IiB5PSIxODQuMTU2MyI+Y3JlYXRlX3RpbWU6IGRhdGV0aW1lIC8vICYjMjU5MTA7JiMzNDI1NTsmIzI2MTAyOyYjMzgzODg7PC90ZXh0PjwvZz48IS0tY2xhc3MgY29tbWVudCAoPz8pLS0+PGcgaWQ9ImVsZW1fY29tbWVudCAoJiMzNTc4MDsmIzM1NzcwOykiPjxyZWN0IGNvZGVMaW5lPSI0OCIgZmlsbD0iI0ZGRkZGRiIgaGVpZ2h0PSIxNjcuODc1IiBpZD0iY29tbWVudCAoJiMzNTc4MDsmIzM1NzcwOykiIHJ4PSIyLjUiIHJ5PSIyLjUiIHN0eWxlPSJzdHJva2U6IzAwMDAwMDtzdHJva2Utd2lkdGg6MC41OyIgd2lkdGg9IjI4MCIgeD0iMjIuNSIgeT0iMjk1Ii8+PGVsbGlwc2UgY3g9IjEwNy4yNSIgY3k9IjMxMSIgZmlsbD0iI0FERDFCMiIgcng9IjExIiByeT0iMTEiIHN0eWxlPSJzdHJva2U6IzE4MTgxODtzdHJva2Utd2lkdGg6MS4wOyIvPjxwYXRoIGQ9Ik0xMTAuODc1LDMxNyBMMTEwLjg3NSwzMTUuMjUgTDEwNS41NjI1LDMxNS4yNSBRMTA1LjU2MjUsMzE1LjI1IDEwNS41NjI1LDMxMS42ODc1IEwxMDkuODEyNSwzMTEuNjg3NSBMMTA5LjgxMjUsMzA5LjkzNzUgTDEwNS41NjI1LDMwOS45Mzc1IEwxMDUuNTYyNSwzMDcuNDM3NSBMMTEwLjg3NSwzMDcuNDM3NSBMMTEwLjg3NSwzMDUuNjg3NSBMMTAzLjgxMjUsMzA1LjY4NzUgUTEwMy44MTI1LDMwNS42ODc1IDEwMy44MTI1LDMxNyBMMTEwLjg3NSwzMTcgWiAiIGZpbGw9IiMwMDAwMDAiLz48dGV4dCBmaWxsPSIjMDAwMDAwIiBmb250LWZhbWlseT0ic2Fucy1zZXJpZiIgZm9udC1zaXplPSIxNCIgbGVuZ3RoQWRqdXN0PSJzcGFjaW5nIiB0ZXh0TGVuZ3RoPSIxMDIiIHg9IjEyNy43NSIgeT0iMzE2Ljc0MjIiPmNvbW1lbnQgKCYjMzU3ODA7JiMzNTc3MDspPC90ZXh0PjxsaW5lIHN0eWxlPSJzdHJva2U6IzAwMDAwMDtzdHJva2Utd2lkdGg6MC41OyIgeDE9IjIzLjUiIHgyPSIzMDEuNSIgeTE9IjMyNyIgeTI9IjMyNyIvPjxlbGxpcHNlIGN4PSIzMy41IiBjeT0iMzM5Ljk5MjIiIGZpbGw9IiMwMDAwMDAiIHJ4PSIzIiByeT0iMyIgc3R5bGU9InN0cm9rZTojMDAwMDAwO3N0cm9rZS13aWR0aDoxLjA7Ii8+PHRleHQgZmlsbD0iIzAwMDAwMCIgZm9udC1mYW1pbHk9InNhbnMtc2VyaWYiIGZvbnQtc2l6ZT0iMTQiIGxlbmd0aEFkanVzdD0ic3BhY2luZyIgdGV4dExlbmd0aD0iMTU2IiB4PSI0Mi41IiB5PSIzNDQuMjM0NCI+aWQ6IGludCAmIzE3MTtQSyYjMTg3OyAvLyAmIzM1NzgwOyYjMzU3NzA7SUQ8L3RleHQ+PGxpbmUgc3R5bGU9InN0cm9rZTojMDAwMDAwO3N0cm9rZS13aWR0aDoxLjA7IiB4MT0iMjMuNSIgeDI9IjMwMS41IiB5MT0iMzQ5Ljk4NDQiIHkyPSIzNDkuOTg0NCIvPjx0ZXh0IGZpbGw9IiMwMDAwMDAiIGZvbnQtZmFtaWx5PSJzYW5zLXNlcmlmIiBmb250LXNpemU9IjE0IiBsZW5ndGhBZGp1c3Q9InNwYWNpbmciIHRleHRMZW5ndGg9IjIxOSIgeD0iMjguNSIgeT0iMzY3LjIxODgiPnVzZXJfaWQ6IGludCAmIzE3MTtGSyYjMTg3OyAvLyAmIzM1NzgwOyYjMzU3NzA7JiMyOTk5MjsmIzI1MTQzO0lEPC90ZXh0Pjx0ZXh0IGZpbGw9IiMwMDAwMDAiIGZvbnQtZmFtaWx5PSJzYW5zLXNlcmlmIiBmb250LXNpemU9IjE0IiBsZW5ndGhBZGp1c3Q9InNwYWNpbmciIHRleHRMZW5ndGg9IjIzMyIgeD0iMjguNSIgeT0iMzgyLjIwMzEiPnNvbmdfaWQ6IGludCAmIzE3MTtGSyYjMTg3OyAvLyAmIzM0OTg3OyYjMzU3ODA7JiMzNTc3MDsmIzI3NDY4OyYjMjYzNTQ7SUQ8L3RleHQ+PHRleHQgZmlsbD0iIzAwMDAwMCIgZm9udC1mYW1pbHk9InNhbnMtc2VyaWYiIGZvbnQtc2l6ZT0iMTQiIGxlbmd0aEFkanVzdD0ic3BhY2luZyIgdGV4dExlbmd0aD0iMjY4IiB4PSIyOC41IiB5PSIzOTcuMTg3NSI+c29uZ19saXN0X2lkOiBpbnQgJiMxNzE7RksmIzE4NzsgLy8gJiMzNDk4NzsmIzM1NzgwOyYjMzU3NzA7JiMyNzQ2ODsmIzIxMzMzO0lEPC90ZXh0Pjx0ZXh0IGZpbGw9IiMwMDAwMDAiIGZvbnQtZmFtaWx5PSJzYW5zLXNlcmlmIiBmb250LXNpemU9IjE0IiBsZW5ndGhBZGp1c3Q9InNwYWNpbmciIHRleHRMZW5ndGg9IjIzMyIgeD0iMjguNSIgeT0iNDEyLjE3MTkiPmNvbnRlbnQ6IHZhcmNoYXIoMjU1KSAvLyAmIzM1NzgwOyYjMzU3NzA7JiMyMDg2OTsmIzIzNDgxOzwvdGV4dD48dGV4dCBmaWxsPSIjMDAwMDAwIiBmb250LWZhbWlseT0ic2Fucy1zZXJpZiIgZm9udC1zaXplPSIxNCIgbGVuZ3RoQWRqdXN0PSJzcGFjaW5nIiB0ZXh0TGVuZ3RoPSIyMzMiIHg9IjI4LjUiIHk9IjQyNy4xNTYzIj5jcmVhdGVfdGltZTogZGF0ZXRpbWUgLy8gJiMzNTc4MDsmIzM1NzcwOyYjMjYxMDI7JiMzODM4ODs8L3RleHQ+PHRleHQgZmlsbD0iIzAwMDAwMCIgZm9udC1mYW1pbHk9InNhbnMtc2VyaWYiIGZvbnQtc2l6ZT0iMTQiIGxlbmd0aEFkanVzdD0ic3BhY2luZyIgdGV4dExlbmd0aD0iMjYxIiB4PSIyOC41IiB5PSI0NDIuMTQwNiI+dHlwZTogdGlueWludCAvLyAmIzM1NzgwOyYjMzU3NzA7JiMzMTg2NzsmIzIyNDExOygwJiMyNzQ2ODsmIzI2MzU0OzEmIzI3NDY4OyYjMjEzMzM7KTwvdGV4dD48dGV4dCBmaWxsPSIjMDAwMDAwIiBmb250LWZhbWlseT0ic2Fucy1zZXJpZiIgZm9udC1zaXplPSIxNCIgbGVuZ3RoQWRqdXN0PSJzcGFjaW5nIiB0ZXh0TGVuZ3RoPSIxMTkiIHg9IjI4LjUiIHk9IjQ1Ny4xMjUiPnVwOiBpbnQgLy8gJiMyODg1NzsmIzM2MTkwOyYjMjU5Njg7PC90ZXh0PjwvZz48IS0tY2xhc3MgbGlzdF9zb25nICg/Pz8/Pz8pLS0+PGcgaWQ9ImVsZW1fbGlzdF9zb25nICgmIzI3NDY4OyYjMjEzMzM7JiMyMTI1MzsmIzIxNTQ3OyYjMjc0Njg7JiMyNjM1NDspIj48cmVjdCBjb2RlTGluZT0iNjAiIGZpbGw9IiNGRkZGRkYiIGhlaWdodD0iOTIuOTUzMSIgaWQ9Imxpc3Rfc29uZyAoJiMyNzQ2ODsmIzIxMzMzOyYjMjEyNTM7JiMyMTU0NzsmIzI3NDY4OyYjMjYzNTQ7KSIgcng9IjIuNSIgcnk9IjIuNSIgc3R5bGU9InN0cm9rZTojMDAwMDAwO3N0cm9rZS13aWR0aDowLjU7IiB3aWR0aD0iMjM4IiB4PSIzMzcuNSIgeT0iMzMyLjUiLz48ZWxsaXBzZSBjeD0iMzY4LjciIGN5PSIzNDguNSIgZmlsbD0iI0FERDFCMiIgcng9IjExIiByeT0iMTEiIHN0eWxlPSJzdHJva2U6IzE4MTgxODtzdHJva2Utd2lkdGg6MS4wOyIvPjxwYXRoIGQ9Ik0zNzIuMzI1LDM1NC41IEwzNzIuMzI1LDM1Mi43NSBMMzY3LjAxMjUsMzUyLjc1IFEzNjcuMDEyNSwzNTIuNzUgMzY3LjAxMjUsMzQ5LjE4NzUgTDM3MS4yNjI1LDM0OS4xODc1IEwzNzEuMjYyNSwzNDcuNDM3NSBMMzY3LjAxMjUsMzQ3LjQzNzUgTDM2Ny4wMTI1LDM0NC45Mzc1IEwzNzIuMzI1LDM0NC45Mzc1IEwzNzIuMzI1LDM0My4xODc1IEwzNjUuMjYyNSwzNDMuMTg3NSBRMzY1LjI2MjUsMzQzLjE4NzUgMzY1LjI2MjUsMzU0LjUgTDM3Mi4zMjUsMzU0LjUgWiAiIGZpbGw9IiMwMDAwMDAiLz48dGV4dCBmaWxsPSIjMDAwMDAwIiBmb250LWZhbWlseT0ic2Fucy1zZXJpZiIgZm9udC1zaXplPSIxNCIgbGVuZ3RoQWRqdXN0PSJzcGFjaW5nIiB0ZXh0TGVuZ3RoPSIxNzAiIHg9IjM4Ni4zIiB5PSIzNTQuMjQyMiI+bGlzdF9zb25nICgmIzI3NDY4OyYjMjEzMzM7JiMyMTI1MzsmIzIxNTQ3OyYjMjc0Njg7JiMyNjM1NDspPC90ZXh0PjxsaW5lIHN0eWxlPSJzdHJva2U6IzAwMDAwMDtzdHJva2Utd2lkdGg6MC41OyIgeDE9IjMzOC41IiB4Mj0iNTc0LjUiIHkxPSIzNjQuNSIgeTI9IjM2NC41Ii8+PGVsbGlwc2UgY3g9IjM0OC41IiBjeT0iMzc3LjQ5MjIiIGZpbGw9IiMwMDAwMDAiIHJ4PSIzIiByeT0iMyIgc3R5bGU9InN0cm9rZTojMDAwMDAwO3N0cm9rZS13aWR0aDoxLjA7Ii8+PHRleHQgZmlsbD0iIzAwMDAwMCIgZm9udC1mYW1pbHk9InNhbnMtc2VyaWYiIGZvbnQtc2l6ZT0iMTQiIGxlbmd0aEFkanVzdD0ic3BhY2luZyIgdGV4dExlbmd0aD0iMTU2IiB4PSIzNTcuNSIgeT0iMzgxLjczNDQiPmlkOiBpbnQgJiMxNzE7UEsmIzE4NzsgLy8gJiMyMDAyNzsmIzM4MTkwO0lEPC90ZXh0PjxsaW5lIHN0eWxlPSJzdHJva2U6IzAwMDAwMDtzdHJva2Utd2lkdGg6MS4wOyIgeDE9IjMzOC41IiB4Mj0iNTc0LjUiIHkxPSIzODcuNDg0NCIgeTI9IjM4Ny40ODQ0Ii8+PHRleHQgZmlsbD0iIzAwMDAwMCIgZm9udC1mYW1pbHk9InNhbnMtc2VyaWYiIGZvbnQtc2l6ZT0iMTQiIGxlbmd0aEFkanVzdD0ic3BhY2luZyIgdGV4dExlbmd0aD0iMTkxIiB4PSIzNDMuNSIgeT0iNDA0LjcxODgiPnNvbmdfaWQ6IGludCAmIzE3MTtGSyYjMTg3OyAvLyAmIzI3NDY4OyYjMjYzNTQ7SUQ8L3RleHQ+PHRleHQgZmlsbD0iIzAwMDAwMCIgZm9udC1mYW1pbHk9InNhbnMtc2VyaWYiIGZvbnQtc2l6ZT0iMTQiIGxlbmd0aEFkanVzdD0ic3BhY2luZyIgdGV4dExlbmd0aD0iMjI2IiB4PSIzNDMuNSIgeT0iNDE5LjcwMzEiPnNvbmdfbGlzdF9pZDogaW50ICYjMTcxO0ZLJiMxODc7IC8vICYjMjc0Njg7JiMyMTMzMztJRDwvdGV4dD48L2c+PCEtLWNsYXNzIHJhbmtfbGlzdCAoPz8/Pz8/PyktLT48ZyBpZD0iZWxlbV9yYW5rX2xpc3QgKCYjMjk5OTI7JiMyNTE0MzsmIzIzNTQ1OyYjMjc0Njg7JiMyMTMzMzsmIzM1NzgwOyYjMjA5OTg7KSI+PHJlY3QgY29kZUxpbmU9IjY3IiBmaWxsPSIjRkZGRkZGIiBoZWlnaHQ9IjEwNy45Mzc1IiBpZD0icmFua19saXN0ICgmIzI5OTkyOyYjMjUxNDM7JiMyMzU0NTsmIzI3NDY4OyYjMjEzMzM7JiMzNTc4MDsmIzIwOTk4OykiIHJ4PSIyLjUiIHJ5PSIyLjUiIHN0eWxlPSJzdHJva2U6IzAwMDAwMDtzdHJva2Utd2lkdGg6MC41OyIgd2lkdGg9IjI1OSIgeD0iNjExIiB5PSIzMjUiLz48ZWxsaXBzZSBjeD0iNjQ1LjM1IiBjeT0iMzQxIiBmaWxsPSIjQUREMUIyIiByeD0iMTEiIHJ5PSIxMSIgc3R5bGU9InN0cm9rZTojMTgxODE4O3N0cm9rZS13aWR0aDoxLjA7Ii8+PHBhdGggZD0iTTY0OC45NzUsMzQ3IEw2NDguOTc1LDM0NS4yNSBMNjQzLjY2MjUsMzQ1LjI1IFE2NDMuNjYyNSwzNDUuMjUgNjQzLjY2MjUsMzQxLjY4NzUgTDY0Ny45MTI1LDM0MS42ODc1IEw2NDcuOTEyNSwzMzkuOTM3NSBMNjQzLjY2MjUsMzM5LjkzNzUgTDY0My42NjI1LDMzNy40Mzc1IEw2NDguOTc1LDMzNy40Mzc1IEw2NDguOTc1LDMzNS42ODc1IEw2NDEuOTEyNSwzMzUuNjg3NSBRNjQxLjkxMjUsMzM1LjY4NzUgNjQxLjkxMjUsMzQ3IEw2NDguOTc1LDM0NyBaICIgZmlsbD0iIzAwMDAwMCIvPjx0ZXh0IGZpbGw9IiMwMDAwMDAiIGZvbnQtZmFtaWx5PSJzYW5zLXNlcmlmIiBmb250LXNpemU9IjE0IiBsZW5ndGhBZGp1c3Q9InNwYWNpbmciIHRleHRMZW5ndGg9IjE4NCIgeD0iNjYzLjY1IiB5PSIzNDYuNzQyMiI+cmFua19saXN0ICgmIzI5OTkyOyYjMjUxNDM7JiMyMzU0NTsmIzI3NDY4OyYjMjEzMzM7JiMzNTc4MDsmIzIwOTk4Oyk8L3RleHQ+PGxpbmUgc3R5bGU9InN0cm9rZTojMDAwMDAwO3N0cm9rZS13aWR0aDowLjU7IiB4MT0iNjEyIiB4Mj0iODY5IiB5MT0iMzU3IiB5Mj0iMzU3Ii8+PGVsbGlwc2UgY3g9IjYyMiIgY3k9IjM2OS45OTIyIiBmaWxsPSIjMDAwMDAwIiByeD0iMyIgcnk9IjMiIHN0eWxlPSJzdHJva2U6IzAwMDAwMDtzdHJva2Utd2lkdGg6MS4wOyIvPjx0ZXh0IGZpbGw9IiMwMDAwMDAiIGZvbnQtZmFtaWx5PSJzYW5zLXNlcmlmIiBmb250LXNpemU9IjE0IiBsZW5ndGhBZGp1c3Q9InNwYWNpbmciIHRleHRMZW5ndGg9IjE3NyIgeD0iNjMxIiB5PSIzNzQuMjM0NCI+aWQ6IGJpZ2ludCAmIzE3MTtQSyYjMTg3OyAvLyAmIzM1NzgwOyYjMjA5OTg7SUQ8L3RleHQ+PGxpbmUgc3R5bGU9InN0cm9rZTojMDAwMDAwO3N0cm9rZS13aWR0aDoxLjA7IiB4MT0iNjEyIiB4Mj0iODY5IiB5MT0iMzc5Ljk4NDQiIHkyPSIzNzkuOTg0NCIvPjx0ZXh0IGZpbGw9IiMwMDAwMDAiIGZvbnQtZmFtaWx5PSJzYW5zLXNlcmlmIiBmb250LXNpemU9IjE0IiBsZW5ndGhBZGp1c3Q9InNwYWNpbmciIHRleHRMZW5ndGg9IjI0NyIgeD0iNjE3IiB5PSIzOTcuMjE4OCI+c29uZ19saXN0X2lkOiBiaWdpbnQgJiMxNzE7RksmIzE4NzsgLy8gJiMyNzQ2ODsmIzIxMzMzO0lEPC90ZXh0Pjx0ZXh0IGZpbGw9IiMwMDAwMDAiIGZvbnQtZmFtaWx5PSJzYW5zLXNlcmlmIiBmb250LXNpemU9IjE0IiBsZW5ndGhBZGp1c3Q9InNwYWNpbmciIHRleHRMZW5ndGg9IjI0MSIgeD0iNjE3IiB5PSI0MTIuMjAzMSI+Y29uc3VtZXJfaWQ6IGJpZ2ludCAmIzE3MTtGSyYjMTg3OyAvLyAmIzI5OTkyOyYjMjUxNDM7SUQ8L3RleHQ+PHRleHQgZmlsbD0iIzAwMDAwMCIgZm9udC1mYW1pbHk9InNhbnMtc2VyaWYiIGZvbnQtc2l6ZT0iMTQiIGxlbmd0aEFkanVzdD0ic3BhY2luZyIgdGV4dExlbmd0aD0iMTI2IiB4PSI2MTciIHk9IjQyNy4xODc1Ij5zY29yZTogaW50IC8vICYjMzU3ODA7JiMyMDk5ODs8L3RleHQ+PC9nPjwhLS1jbGFzcyBzaW5nZXIgKD8/KS0tPjxnIGlkPSJlbGVtX3NpbmdlciAoJiMyNzQ2ODsmIzI1MTYzOykiPjxyZWN0IGNvZGVMaW5lPSI3NSIgZmlsbD0iI0ZGRkZGRiIgaGVpZ2h0PSIxNTIuODkwNiIgaWQ9InNpbmdlciAoJiMyNzQ2ODsmIzI1MTYzOykiIHJ4PSIyLjUiIHJ5PSIyLjUiIHN0eWxlPSJzdHJva2U6IzAwMDAwMDtzdHJva2Utd2lkdGg6MC41OyIgd2lkdGg9IjI1MiIgeD0iOTA1LjUiIHk9IjMwMi41Ii8+PGVsbGlwc2UgY3g9Ijk4MC43NSIgY3k9IjMxOC41IiBmaWxsPSIjQUREMUIyIiByeD0iMTEiIHJ5PSIxMSIgc3R5bGU9InN0cm9rZTojMTgxODE4O3N0cm9rZS13aWR0aDoxLjA7Ii8+PHBhdGggZD0iTTk4NC4zNzUsMzI0LjUgTDk4NC4zNzUsMzIyLjc1IEw5NzkuMDYyNSwzMjIuNzUgUTk3OS4wNjI1LDMyMi43NSA5NzkuMDYyNSwzMTkuMTg3NSBMOTgzLjMxMjUsMzE5LjE4NzUgTDk4My4zMTI1LDMxNy40Mzc1IEw5NzkuMDYyNSwzMTcuNDM3NSBMOTc5LjA2MjUsMzE0LjkzNzUgTDk4NC4zNzUsMzE0LjkzNzUgTDk4NC4zNzUsMzEzLjE4NzUgTDk3Ny4zMTI1LDMxMy4xODc1IFE5NzcuMzEyNSwzMTMuMTg3NSA5NzcuMzEyNSwzMjQuNSBMOTg0LjM3NSwzMjQuNSBaICIgZmlsbD0iIzAwMDAwMCIvPjx0ZXh0IGZpbGw9IiMwMDAwMDAiIGZvbnQtZmFtaWx5PSJzYW5zLXNlcmlmIiBmb250LXNpemU9IjE0IiBsZW5ndGhBZGp1c3Q9InNwYWNpbmciIHRleHRMZW5ndGg9IjkzIiB4PSIxMDAxLjI1IiB5PSIzMjQuMjQyMiI+c2luZ2VyICgmIzI3NDY4OyYjMjUxNjM7KTwvdGV4dD48bGluZSBzdHlsZT0ic3Ryb2tlOiMwMDAwMDA7c3Ryb2tlLXdpZHRoOjAuNTsiIHgxPSI5MDYuNSIgeDI9IjExNTYuNSIgeTE9IjMzNC41IiB5Mj0iMzM0LjUiLz48ZWxsaXBzZSBjeD0iOTE2LjUiIGN5PSIzNDcuNDkyMiIgZmlsbD0iIzAwMDAwMCIgcng9IjMiIHJ5PSIzIiBzdHlsZT0ic3Ryb2tlOiMwMDAwMDA7c3Ryb2tlLXdpZHRoOjEuMDsiLz48dGV4dCBmaWxsPSIjMDAwMDAwIiBmb250LWZhbWlseT0ic2Fucy1zZXJpZiIgZm9udC1zaXplPSIxNCIgbGVuZ3RoQWRqdXN0PSJzcGFjaW5nIiB0ZXh0TGVuZ3RoPSIxNTYiIHg9IjkyNS41IiB5PSIzNTEuNzM0NCI+aWQ6IGludCAmIzE3MTtQSyYjMTg3OyAvLyAmIzI3NDY4OyYjMjUxNjM7SUQ8L3RleHQ+PGxpbmUgc3R5bGU9InN0cm9rZTojMDAwMDAwO3N0cm9rZS13aWR0aDoxLjA7IiB4MT0iOTA2LjUiIHgyPSIxMTU2LjUiIHkxPSIzNTcuNDg0NCIgeTI9IjM1Ny40ODQ0Ii8+PHRleHQgZmlsbD0iIzAwMDAwMCIgZm9udC1mYW1pbHk9InNhbnMtc2VyaWYiIGZvbnQtc2l6ZT0iMTQiIGxlbmd0aEFkanVzdD0ic3BhY2luZyIgdGV4dExlbmd0aD0iMTkyIiB4PSI5MTEuNSIgeT0iMzc0LjcxODgiPm5hbWU6IHZhcmNoYXIoNDUpIC8vICYjMjc0Njg7JiMyNTE2MzsmIzIxNTE3OzwvdGV4dD48dGV4dCBmaWxsPSIjMDAwMDAwIiBmb250LWZhbWlseT0ic2Fucy1zZXJpZiIgZm9udC1zaXplPSIxNCIgbGVuZ3RoQWRqdXN0PSJzcGFjaW5nIiB0ZXh0TGVuZ3RoPSIyMzMiIHg9IjkxMS41IiB5PSIzODkuNzAzMSI+c2V4OiB0aW55aW50IC8vICYjMjQ2MTU7JiMyMTAzNTsoMCYjMjI4OTk7MSYjMzAwMDc7MiYjMzI0NTI7JiMyMTUxMjspPC90ZXh0Pjx0ZXh0IGZpbGw9IiMwMDAwMDAiIGZvbnQtZmFtaWx5PSJzYW5zLXNlcmlmIiBmb250LXNpemU9IjE0IiBsZW5ndGhBZGp1c3Q9InNwYWNpbmciIHRleHRMZW5ndGg9IjIwNSIgeD0iOTExLjUiIHk9IjQwNC42ODc1Ij5waWM6IHZhcmNoYXIoMjU1KSAvLyAmIzI3NDY4OyYjMjUxNjM7JiMyMjI3MDsmIzI5MjU1OzwvdGV4dD48dGV4dCBmaWxsPSIjMDAwMDAwIiBmb250LWZhbWlseT0ic2Fucy1zZXJpZiIgZm9udC1zaXplPSIxNCIgbGVuZ3RoQWRqdXN0PSJzcGFjaW5nIiB0ZXh0TGVuZ3RoPSIxNjIiIHg9IjkxMS41IiB5PSI0MTkuNjcxOSI+YmlydGg6IGRhdGV0aW1lIC8vICYjMjk5ODM7JiMyNjA4NTs8L3RleHQ+PHRleHQgZmlsbD0iIzAwMDAwMCIgZm9udC1mYW1pbHk9InNhbnMtc2VyaWYiIGZvbnQtc2l6ZT0iMTQiIGxlbmd0aEFkanVzdD0ic3BhY2luZyIgdGV4dExlbmd0aD0iMjA1IiB4PSI5MTEuNSIgeT0iNDM0LjY1NjMiPmxvY2F0aW9uOiB2YXJjaGFyKDQ1KSAvLyAmIzIyMzIwOyYjMjEzMDY7PC90ZXh0Pjx0ZXh0IGZpbGw9IiMwMDAwMDAiIGZvbnQtZmFtaWx5PSJzYW5zLXNlcmlmIiBmb250LXNpemU9IjE0IiBsZW5ndGhBZGp1c3Q9InNwYWNpbmciIHRleHRMZW5ndGg9IjI0MCIgeD0iOTExLjUiIHk9IjQ0OS42NDA2Ij5pbnRyb2R1Y3Rpb246IHZhcmNoYXIoMjU1KSAvLyAmIzMxNjE2OyYjMjAxNzE7PC90ZXh0PjwvZz48IS0tY2xhc3Mgc29uZyAoPz8pLS0+PGcgaWQ9ImVsZW1fc29uZyAoJiMyNzQ2ODsmIzI2MzU0OykiPjxyZWN0IGNvZGVMaW5lPSI4NiIgZmlsbD0iI0ZGRkZGRiIgaGVpZ2h0PSIxODIuODU5NCIgaWQ9InNvbmcgKCYjMjc0Njg7JiMyNjM1NDspIiByeD0iMi41IiByeT0iMi41IiBzdHlsZT0ic3Ryb2tlOiMwMDAwMDA7c3Ryb2tlLXdpZHRoOjAuNTsiIHdpZHRoPSIyNTIiIHg9IjM2LjUiIHk9IjUyMyIvPjxlbGxpcHNlIGN4PSIxMTguNzUiIGN5PSI1MzkiIGZpbGw9IiNBREQxQjIiIHJ4PSIxMSIgcnk9IjExIiBzdHlsZT0ic3Ryb2tlOiMxODE4MTg7c3Ryb2tlLXdpZHRoOjEuMDsiLz48cGF0aCBkPSJNMTIyLjM3NSw1NDUgTDEyMi4zNzUsNTQzLjI1IEwxMTcuMDYyNSw1NDMuMjUgUTExNy4wNjI1LDU0My4yNSAxMTcuMDYyNSw1MzkuNjg3NSBMMTIxLjMxMjUsNTM5LjY4NzUgTDEyMS4zMTI1LDUzNy45Mzc1IEwxMTcuMDYyNSw1MzcuOTM3NSBMMTE3LjA2MjUsNTM1LjQzNzUgTDEyMi4zNzUsNTM1LjQzNzUgTDEyMi4zNzUsNTMzLjY4NzUgTDExNS4zMTI1LDUzMy42ODc1IFExMTUuMzEyNSw1MzMuNjg3NSAxMTUuMzEyNSw1NDUgTDEyMi4zNzUsNTQ1IFogIiBmaWxsPSIjMDAwMDAwIi8+PHRleHQgZmlsbD0iIzAwMDAwMCIgZm9udC1mYW1pbHk9InNhbnMtc2VyaWYiIGZvbnQtc2l6ZT0iMTQiIGxlbmd0aEFkanVzdD0ic3BhY2luZyIgdGV4dExlbmd0aD0iNzkiIHg9IjEzOS4yNSIgeT0iNTQ0Ljc0MjIiPnNvbmcgKCYjMjc0Njg7JiMyNjM1NDspPC90ZXh0PjxsaW5lIHN0eWxlPSJzdHJva2U6IzAwMDAwMDtzdHJva2Utd2lkdGg6MC41OyIgeDE9IjM3LjUiIHgyPSIyODcuNSIgeTE9IjU1NSIgeTI9IjU1NSIvPjxlbGxpcHNlIGN4PSI0Ny41IiBjeT0iNTY3Ljk5MjIiIGZpbGw9IiMwMDAwMDAiIHJ4PSIzIiByeT0iMyIgc3R5bGU9InN0cm9rZTojMDAwMDAwO3N0cm9rZS13aWR0aDoxLjA7Ii8+PHRleHQgZmlsbD0iIzAwMDAwMCIgZm9udC1mYW1pbHk9InNhbnMtc2VyaWYiIGZvbnQtc2l6ZT0iMTQiIGxlbmd0aEFkanVzdD0ic3BhY2luZyIgdGV4dExlbmd0aD0iMTU2IiB4PSI1Ni41IiB5PSI1NzIuMjM0NCI+aWQ6IGludCAmIzE3MTtQSyYjMTg3OyAvLyAmIzI3NDY4OyYjMjYzNTQ7SUQ8L3RleHQ+PGxpbmUgc3R5bGU9InN0cm9rZTojMDAwMDAwO3N0cm9rZS13aWR0aDoxLjA7IiB4MT0iMzcuNSIgeDI9IjI4Ny41IiB5MT0iNTc3Ljk4NDQiIHkyPSI1NzcuOTg0NCIvPjx0ZXh0IGZpbGw9IiMwMDAwMDAiIGZvbnQtZmFtaWx5PSJzYW5zLXNlcmlmIiBmb250LXNpemU9IjE0IiBsZW5ndGhBZGp1c3Q9InNwYWNpbmciIHRleHRMZW5ndGg9IjIwNSIgeD0iNDIuNSIgeT0iNTk1LjIxODgiPnNpbmdlcl9pZDogaW50ICYjMTcxO0ZLJiMxODc7IC8vICYjMjc0Njg7JiMyNTE2MztJRDwvdGV4dD48dGV4dCBmaWxsPSIjMDAwMDAwIiBmb250LWZhbWlseT0ic2Fucy1zZXJpZiIgZm9udC1zaXplPSIxNCIgbGVuZ3RoQWRqdXN0PSJzcGFjaW5nIiB0ZXh0TGVuZ3RoPSIxNzgiIHg9IjQyLjUiIHk9IjYxMC4yMDMxIj5uYW1lOiB2YXJjaGFyKDQ1KSAvLyAmIzI3NDY4OyYjMjE1MTc7PC90ZXh0Pjx0ZXh0IGZpbGw9IiMwMDAwMDAiIGZvbnQtZmFtaWx5PSJzYW5zLXNlcmlmIiBmb250LXNpemU9IjE0IiBsZW5ndGhBZGp1c3Q9InNwYWNpbmciIHRleHRMZW5ndGg9IjI0MCIgeD0iNDIuNSIgeT0iNjI1LjE4NzUiPmludHJvZHVjdGlvbjogdmFyY2hhcigyNTUpIC8vICYjMzE2MTY7JiMyMDE3MTs8L3RleHQ+PHRleHQgZmlsbD0iIzAwMDAwMCIgZm9udC1mYW1pbHk9InNhbnMtc2VyaWYiIGZvbnQtc2l6ZT0iMTQiIGxlbmd0aEFkanVzdD0ic3BhY2luZyIgdGV4dExlbmd0aD0iMjMzIiB4PSI0Mi41IiB5PSI2NDAuMTcxOSI+Y3JlYXRlX3RpbWU6IGRhdGV0aW1lIC8vICYjMjE0NTc7JiMzNDg5MjsmIzI2MTAyOyYjMzgzODg7PC90ZXh0Pjx0ZXh0IGZpbGw9IiMwMDAwMDAiIGZvbnQtZmFtaWx5PSJzYW5zLXNlcmlmIiBmb250LXNpemU9IjE0IiBsZW5ndGhBZGp1c3Q9InNwYWNpbmciIHRleHRMZW5ndGg9IjIzMyIgeD0iNDIuNSIgeT0iNjU1LjE1NjMiPnVwZGF0ZV90aW1lOiBkYXRldGltZSAvLyAmIzI2MzU2OyYjMjYwMzI7JiMyNjEwMjsmIzM4Mzg4OzwvdGV4dD48dGV4dCBmaWxsPSIjMDAwMDAwIiBmb250LWZhbWlseT0ic2Fucy1zZXJpZiIgZm9udC1zaXplPSIxNCIgbGVuZ3RoQWRqdXN0PSJzcGFjaW5nIiB0ZXh0TGVuZ3RoPSIyMDUiIHg9IjQyLjUiIHk9IjY3MC4xNDA2Ij5waWM6IHZhcmNoYXIoMjU1KSAvLyAmIzI3NDY4OyYjMjYzNTQ7JiMyMjI3MDsmIzI5MjU1OzwvdGV4dD48dGV4dCBmaWxsPSIjMDAwMDAwIiBmb250LWZhbWlseT0ic2Fucy1zZXJpZiIgZm9udC1zaXplPSIxNCIgbGVuZ3RoQWRqdXN0PSJzcGFjaW5nIiB0ZXh0TGVuZ3RoPSIxMzMiIHg9IjQyLjUiIHk9IjY4NS4xMjUiPmx5cmljOiB0ZXh0IC8vICYjMjc0Njg7JiMzNTc4OTs8L3RleHQ+PHRleHQgZmlsbD0iIzAwMDAwMCIgZm9udC1mYW1pbHk9InNhbnMtc2VyaWYiIGZvbnQtc2l6ZT0iMTQiIGxlbmd0aEFkanVzdD0ic3BhY2luZyIgdGV4dExlbmd0aD0iMjA1IiB4PSI0Mi41IiB5PSI3MDAuMTA5NCI+dXJsOiB2YXJjaGFyKDI1NSkgLy8gJiMyNzQ2ODsmIzI2MzU0OyYjMzgxNDI7JiMyNTUwOTs8L3RleHQ+PC9nPjwhLS1jbGFzcyBzb25nX2xpc3QgKD8/KS0tPjxnIGlkPSJlbGVtX3NvbmdfbGlzdCAoJiMyNzQ2ODsmIzIxMzMzOykiPjxyZWN0IGNvZGVMaW5lPSI5OSIgZmlsbD0iI0ZGRkZGRiIgaGVpZ2h0PSIxMjIuOTIxOSIgaWQ9InNvbmdfbGlzdCAoJiMyNzQ2ODsmIzIxMzMzOykiIHJ4PSIyLjUiIHJ5PSIyLjUiIHN0eWxlPSJzdHJva2U6IzAwMDAwMDtzdHJva2Utd2lkdGg6MC41OyIgd2lkdGg9IjIxNyIgeD0iMzI0IiB5PSI1NTMiLz48ZWxsaXBzZSBjeD0iMzcxLjI1IiBjeT0iNTY5IiBmaWxsPSIjQUREMUIyIiByeD0iMTEiIHJ5PSIxMSIgc3R5bGU9InN0cm9rZTojMTgxODE4O3N0cm9rZS13aWR0aDoxLjA7Ii8+PHBhdGggZD0iTTM3NC44NzUsNTc1IEwzNzQuODc1LDU3My4yNSBMMzY5LjU2MjUsNTczLjI1IFEzNjkuNTYyNSw1NzMuMjUgMzY5LjU2MjUsNTY5LjY4NzUgTDM3My44MTI1LDU2OS42ODc1IEwzNzMuODEyNSw1NjcuOTM3NSBMMzY5LjU2MjUsNTY3LjkzNzUgTDM2OS41NjI1LDU2NS40Mzc1IEwzNzQuODc1LDU2NS40Mzc1IEwzNzQuODc1LDU2My42ODc1IEwzNjcuODEyNSw1NjMuNjg3NSBRMzY3LjgxMjUsNTYzLjY4NzUgMzY3LjgxMjUsNTc1IEwzNzQuODc1LDU3NSBaICIgZmlsbD0iIzAwMDAwMCIvPjx0ZXh0IGZpbGw9IiMwMDAwMDAiIGZvbnQtZmFtaWx5PSJzYW5zLXNlcmlmIiBmb250LXNpemU9IjE0IiBsZW5ndGhBZGp1c3Q9InNwYWNpbmciIHRleHRMZW5ndGg9IjExNCIgeD0iMzkxLjc1IiB5PSI1NzQuNzQyMiI+c29uZ19saXN0ICgmIzI3NDY4OyYjMjEzMzM7KTwvdGV4dD48bGluZSBzdHlsZT0ic3Ryb2tlOiMwMDAwMDA7c3Ryb2tlLXdpZHRoOjAuNTsiIHgxPSIzMjUiIHgyPSI1NDAiIHkxPSI1ODUiIHkyPSI1ODUiLz48ZWxsaXBzZSBjeD0iMzM1IiBjeT0iNTk3Ljk5MjIiIGZpbGw9IiMwMDAwMDAiIHJ4PSIzIiByeT0iMyIgc3R5bGU9InN0cm9rZTojMDAwMDAwO3N0cm9rZS13aWR0aDoxLjA7Ii8+PHRleHQgZmlsbD0iIzAwMDAwMCIgZm9udC1mYW1pbHk9InNhbnMtc2VyaWYiIGZvbnQtc2l6ZT0iMTQiIGxlbmd0aEFkanVzdD0ic3BhY2luZyIgdGV4dExlbmd0aD0iMTU2IiB4PSIzNDQiIHk9IjYwMi4yMzQ0Ij5pZDogaW50ICYjMTcxO1BLJiMxODc7IC8vICYjMjc0Njg7JiMyMTMzMztJRDwvdGV4dD48bGluZSBzdHlsZT0ic3Ryb2tlOiMwMDAwMDA7c3Ryb2tlLXdpZHRoOjEuMDsiIHgxPSIzMjUiIHgyPSI1NDAiIHkxPSI2MDcuOTg0NCIgeTI9IjYwNy45ODQ0Ii8+PHRleHQgZmlsbD0iIzAwMDAwMCIgZm9udC1mYW1pbHk9InNhbnMtc2VyaWYiIGZvbnQtc2l6ZT0iMTQiIGxlbmd0aEFkanVzdD0ic3BhY2luZyIgdGV4dExlbmd0aD0iMTkxIiB4PSIzMzAiIHk9IjYyNS4yMTg4Ij50aXRsZTogdmFyY2hhcigyNTUpIC8vICYjMjY2MzE7JiMzOTA2NDs8L3RleHQ+PHRleHQgZmlsbD0iIzAwMDAwMCIgZm9udC1mYW1pbHk9InNhbnMtc2VyaWYiIGZvbnQtc2l6ZT0iMTQiIGxlbmd0aEFkanVzdD0ic3BhY2luZyIgdGV4dExlbmd0aD0iMjA1IiB4PSIzMzAiIHk9IjY0MC4yMDMxIj5waWM6IHZhcmNoYXIoMjU1KSAvLyAmIzI3NDY4OyYjMjEzMzM7JiMyMjI3MDsmIzI5MjU1OzwvdGV4dD48dGV4dCBmaWxsPSIjMDAwMDAwIiBmb250LWZhbWlseT0ic2Fucy1zZXJpZiIgZm9udC1zaXplPSIxNCIgbGVuZ3RoQWRqdXN0PSJzcGFjaW5nIiB0ZXh0TGVuZ3RoPSIxODIiIHg9IjMzMCIgeT0iNjU1LjE4NzUiPmludHJvZHVjdGlvbjogdGV4dCAvLyAmIzMxNjE2OyYjMjAxNzE7PC90ZXh0Pjx0ZXh0IGZpbGw9IiMwMDAwMDAiIGZvbnQtZmFtaWx5PSJzYW5zLXNlcmlmIiBmb250LXNpemU9IjE0IiBsZW5ndGhBZGp1c3Q9InNwYWNpbmciIHRleHRMZW5ndGg9IjE4NCIgeD0iMzMwIiB5PSI2NzAuMTcxOSI+c3R5bGU6IHZhcmNoYXIoMTApIC8vICYjMzkxMTg7JiMyNjY4NDs8L3RleHQ+PC9nPjwhLS1jbGFzcyB1c2VyX3N1cHBvcnQgKD8/Pz8/PyktLT48ZyBpZD0iZWxlbV91c2VyX3N1cHBvcnQgKCYjMjk5OTI7JiMyNTE0MzsmIzI4ODU3OyYjMzYxOTA7JiMzNTc4MDsmIzM1NzcwOykiPjxyZWN0IGNvZGVMaW5lPSIxMDgiIGZpbGw9IiNGRkZGRkYiIGhlaWdodD0iOTIuOTUzMSIgaWQ9InVzZXJfc3VwcG9ydCAoJiMyOTk5MjsmIzI1MTQzOyYjMjg4NTc7JiMzNjE5MDsmIzM1NzgwOyYjMzU3NzA7KSIgcng9IjIuNSIgcnk9IjIuNSIgc3R5bGU9InN0cm9rZTojMDAwMDAwO3N0cm9rZS13aWR0aDowLjU7IiB3aWR0aD0iMjYxIiB4PSI1NzYiIHk9IjU2OCIvPjxlbGxpcHNlIGN4PSI2MDguMSIgY3k9IjU4NCIgZmlsbD0iI0FERDFCMiIgcng9IjExIiByeT0iMTEiIHN0eWxlPSJzdHJva2U6IzE4MTgxODtzdHJva2Utd2lkdGg6MS4wOyIvPjxwYXRoIGQ9Ik02MTEuNzI1LDU5MCBMNjExLjcyNSw1ODguMjUgTDYwNi40MTI1LDU4OC4yNSBRNjA2LjQxMjUsNTg4LjI1IDYwNi40MTI1LDU4NC42ODc1IEw2MTAuNjYyNSw1ODQuNjg3NSBMNjEwLjY2MjUsNTgyLjkzNzUgTDYwNi40MTI1LDU4Mi45Mzc1IEw2MDYuNDEyNSw1ODAuNDM3NSBMNjExLjcyNSw1ODAuNDM3NSBMNjExLjcyNSw1NzguNjg3NSBMNjA0LjY2MjUsNTc4LjY4NzUgUTYwNC42NjI1LDU3OC42ODc1IDYwNC42NjI1LDU5MCBMNjExLjcyNSw1OTAgWiAiIGZpbGw9IiMwMDAwMDAiLz48dGV4dCBmaWxsPSIjMDAwMDAwIiBmb250LWZhbWlseT0ic2Fucy1zZXJpZiIgZm9udC1zaXplPSIxNCIgbGVuZ3RoQWRqdXN0PSJzcGFjaW5nIiB0ZXh0TGVuZ3RoPSIxOTEiIHg9IjYyNS45IiB5PSI1ODkuNzQyMiI+dXNlcl9zdXBwb3J0ICgmIzI5OTkyOyYjMjUxNDM7JiMyODg1NzsmIzM2MTkwOyYjMzU3ODA7JiMzNTc3MDspPC90ZXh0PjxsaW5lIHN0eWxlPSJzdHJva2U6IzAwMDAwMDtzdHJva2Utd2lkdGg6MC41OyIgeDE9IjU3NyIgeDI9IjgzNiIgeTE9IjYwMCIgeTI9IjYwMCIvPjxlbGxpcHNlIGN4PSI1ODciIGN5PSI2MTIuOTkyMiIgZmlsbD0iIzAwMDAwMCIgcng9IjMiIHJ5PSIzIiBzdHlsZT0ic3Ryb2tlOiMwMDAwMDA7c3Ryb2tlLXdpZHRoOjEuMDsiLz48dGV4dCBmaWxsPSIjMDAwMDAwIiBmb250LWZhbWlseT0ic2Fucy1zZXJpZiIgZm9udC1zaXplPSIxNCIgbGVuZ3RoQWRqdXN0PSJzcGFjaW5nIiB0ZXh0TGVuZ3RoPSIxNTYiIHg9IjU5NiIgeT0iNjE3LjIzNDQiPmlkOiBpbnQgJiMxNzE7UEsmIzE4NzsgLy8gJiMyODg1NzsmIzM2MTkwO0lEPC90ZXh0PjxsaW5lIHN0eWxlPSJzdHJva2U6IzAwMDAwMDtzdHJva2Utd2lkdGg6MS4wOyIgeDE9IjU3NyIgeDI9IjgzNiIgeTE9IjYyMi45ODQ0IiB5Mj0iNjIyLjk4NDQiLz48dGV4dCBmaWxsPSIjMDAwMDAwIiBmb250LWZhbWlseT0ic2Fucy1zZXJpZiIgZm9udC1zaXplPSIxNCIgbGVuZ3RoQWRqdXN0PSJzcGFjaW5nIiB0ZXh0TGVuZ3RoPSIyMTQiIHg9IjU4MiIgeT0iNjQwLjIxODgiPmNvbW1lbnRfaWQ6IGludCAmIzE3MTtGSyYjMTg3OyAvLyAmIzM1NzgwOyYjMzU3NzA7SUQ8L3RleHQ+PHRleHQgZmlsbD0iIzAwMDAwMCIgZm9udC1mYW1pbHk9InNhbnMtc2VyaWYiIGZvbnQtc2l6ZT0iMTQiIGxlbmd0aEFkanVzdD0ic3BhY2luZyIgdGV4dExlbmd0aD0iMjQ5IiB4PSI1ODIiIHk9IjY1NS4yMDMxIj51c2VyX2lkOiB2YXJjaGFyKDQ1KSAmIzE3MTtGSyYjMTg3OyAvLyAmIzI5OTkyOyYjMjUxNDM7SUQ8L3RleHQ+PC9nPjwhLS1jbGFzcyBjb25zdW1lci0tPjxnIGlkPSJlbGVtX2NvbnN1bWVyIj48cmVjdCBmaWxsPSIjRkZGRkZGIiBoZWlnaHQ9IjQ4IiBpZD0iY29uc3VtZXIiIHJ4PSIyLjUiIHJ5PSIyLjUiIHN0eWxlPSJzdHJva2U6IzAwMDAwMDtzdHJva2Utd2lkdGg6MC41OyIgd2lkdGg9Ijg5IiB4PSIxMTkzIiB5PSIzNTUiLz48ZWxsaXBzZSBjeD0iMTIwOCIgY3k9IjM3MSIgZmlsbD0iI0FERDFCMiIgcng9IjExIiByeT0iMTEiIHN0eWxlPSJzdHJva2U6IzE4MTgxODtzdHJva2Utd2lkdGg6MS4wOyIvPjxwYXRoIGQ9Ik0xMjA1LjYyNSwzNzUuMjUgTDEyMDUuNjI1LDM3NyBMMTIxMC41NjI1LDM3NyBMMTIxMC41NjI1LDM3NS4yNSBMMTIwNS42MjUsMzc1LjI1IFogTTEyMDYuMzEyNSwzNzUuOTM3NSBRMTIwNi4zMTI1LDM3NS45Mzc1IDEyMDYuMzEyNSwzNjYuNzUgTDEyMDQuNTYyNSwzNjYuNzUgUTEyMDQuNTYyNSwzNjYuNzUgMTIwNC41NjI1LDM3NS45Mzc1IEwxMjA2LjMxMjUsMzc1LjkzNzUgWiBNMTIwOS44NzUsMzc1LjkzNzUgTDEyMTEuNjI1LDM3NS45Mzc1IFExMjExLjYyNSwzNzUuOTM3NSAxMjExLjYyNSwzNzMuMTI1IEwxMjA5Ljg3NSwzNzMuMTI1IFExMjA5Ljg3NSwzNzMuMTI1IDEyMDkuODc1LDM3NS45Mzc1IFogTTEyMDkuODc1LDM2Ni43NSBRMTIwOS44NzUsMzY2Ljc1IDEyMDkuODc1LDM2OS41NjI1IEwxMjExLjYyNSwzNjkuNTYyNSBRMTIxMS42MjUsMzY5LjU2MjUgMTIxMS42MjUsMzY2Ljc1IEwxMjA5Ljg3NSwzNjYuNzUgWiBNMTIwNS42MjUsMzY3LjQzNzUgTDEyMTAuNTYyNSwzNjcuNDM3NSBMMTIxMC41NjI1LDM2NS42ODc1IEwxMjA1LjYyNSwzNjUuNjg3NSBMMTIwNS42MjUsMzY3LjQzNzUgWiAiIGZpbGw9IiMwMDAwMDAiLz48dGV4dCBmaWxsPSIjMDAwMDAwIiBmb250LWZhbWlseT0ic2Fucy1zZXJpZiIgZm9udC1zaXplPSIxNCIgbGVuZ3RoQWRqdXN0PSJzcGFjaW5nIiB0ZXh0TGVuZ3RoPSI1NyIgeD0iMTIyMiIgeT0iMzc2Ljc0MjIiPmNvbnN1bWVyPC90ZXh0PjxsaW5lIHN0eWxlPSJzdHJva2U6IzAwMDAwMDtzdHJva2Utd2lkdGg6MC41OyIgeDE9IjExOTQiIHgyPSIxMjgxIiB5MT0iMzg3IiB5Mj0iMzg3Ii8+PGxpbmUgc3R5bGU9InN0cm9rZTojMDAwMDAwO3N0cm9rZS13aWR0aDowLjU7IiB4MT0iMTE5NCIgeDI9IjEyODEiIHkxPSIzOTUiIHkyPSIzOTUiLz48L2c+PCEtLWNsYXNzIGNvbGxlY3QtLT48ZyBpZD0iZWxlbV9jb2xsZWN0Ij48cmVjdCBmaWxsPSIjRkZGRkZGIiBoZWlnaHQ9IjQ4IiBpZD0iY29sbGVjdCIgcng9IjIuNSIgcnk9IjIuNSIgc3R5bGU9InN0cm9rZTojMDAwMDAwO3N0cm9rZS13aWR0aDowLjU7IiB3aWR0aD0iODEiIHg9IjExOTMiIHk9IjU5MC41Ii8+PGVsbGlwc2UgY3g9IjEyMDgiIGN5PSI2MDYuNSIgZmlsbD0iI0FERDFCMiIgcng9IjExIiByeT0iMTEiIHN0eWxlPSJzdHJva2U6IzE4MTgxODtzdHJva2Utd2lkdGg6MS4wOyIvPjxwYXRoIGQ9Ik0xMjA1LjYyNSw2MTAuNzUgTDEyMDUuNjI1LDYxMi41IEwxMjEwLjU2MjUsNjEyLjUgTDEyMTAuNTYyNSw2MTAuNzUgTDEyMDUuNjI1LDYxMC43NSBaIE0xMjA2LjMxMjUsNjExLjQzNzUgUTEyMDYuMzEyNSw2MTEuNDM3NSAxMjA2LjMxMjUsNjAyLjI1IEwxMjA0LjU2MjUsNjAyLjI1IFExMjA0LjU2MjUsNjAyLjI1IDEyMDQuNTYyNSw2MTEuNDM3NSBMMTIwNi4zMTI1LDYxMS40Mzc1IFogTTEyMDkuODc1LDYxMS40Mzc1IEwxMjExLjYyNSw2MTEuNDM3NSBRMTIxMS42MjUsNjExLjQzNzUgMTIxMS42MjUsNjA4LjYyNSBMMTIwOS44NzUsNjA4LjYyNSBRMTIwOS44NzUsNjA4LjYyNSAxMjA5Ljg3NSw2MTEuNDM3NSBaIE0xMjA5Ljg3NSw2MDIuMjUgUTEyMDkuODc1LDYwMi4yNSAxMjA5Ljg3NSw2MDUuMDYyNSBMMTIxMS42MjUsNjA1LjA2MjUgUTEyMTEuNjI1LDYwNS4wNjI1IDEyMTEuNjI1LDYwMi4yNSBMMTIwOS44NzUsNjAyLjI1IFogTTEyMDUuNjI1LDYwMi45Mzc1IEwxMjEwLjU2MjUsNjAyLjkzNzUgTDEyMTAuNTYyNSw2MDEuMTg3NSBMMTIwNS42MjUsNjAxLjE4NzUgTDEyMDUuNjI1LDYwMi45Mzc1IFogIiBmaWxsPSIjMDAwMDAwIi8+PHRleHQgZmlsbD0iIzAwMDAwMCIgZm9udC1mYW1pbHk9InNhbnMtc2VyaWYiIGZvbnQtc2l6ZT0iMTQiIGxlbmd0aEFkanVzdD0ic3BhY2luZyIgdGV4dExlbmd0aD0iNDkiIHg9IjEyMjIiIHk9IjYxMi4yNDIyIj5jb2xsZWN0PC90ZXh0PjxsaW5lIHN0eWxlPSJzdHJva2U6IzAwMDAwMDtzdHJva2Utd2lkdGg6MC41OyIgeDE9IjExOTQiIHgyPSIxMjczIiB5MT0iNjIyLjUiIHkyPSI2MjIuNSIvPjxsaW5lIHN0eWxlPSJzdHJva2U6IzAwMDAwMDtzdHJva2Utd2lkdGg6MC41OyIgeDE9IjExOTQiIHgyPSIxMjczIiB5MT0iNjMwLjUiIHkyPSI2MzAuNSIvPjwvZz48IS0tY2xhc3MgY29tbWVudC0tPjxnIGlkPSJlbGVtX2NvbW1lbnQiPjxyZWN0IGZpbGw9IiNGRkZGRkYiIGhlaWdodD0iNDgiIGlkPSJjb21tZW50IiByeD0iMi41IiByeT0iMi41IiBzdHlsZT0ic3Ryb2tlOiMwMDAwMDA7c3Ryb2tlLXdpZHRoOjAuNTsiIHdpZHRoPSI4MyIgeD0iMTMwOSIgeT0iNTkwLjUiLz48ZWxsaXBzZSBjeD0iMTMyNCIgY3k9IjYwNi41IiBmaWxsPSIjQUREMUIyIiByeD0iMTEiIHJ5PSIxMSIgc3R5bGU9InN0cm9rZTojMTgxODE4O3N0cm9rZS13aWR0aDoxLjA7Ii8+PHBhdGggZD0iTTEzMjEuNjI1LDYxMC43NSBMMTMyMS42MjUsNjEyLjUgTDEzMjYuNTYyNSw2MTIuNSBMMTMyNi41NjI1LDYxMC43NSBMMTMyMS42MjUsNjEwLjc1IFogTTEzMjIuMzEyNSw2MTEuNDM3NSBRMTMyMi4zMTI1LDYxMS40Mzc1IDEzMjIuMzEyNSw2MDIuMjUgTDEzMjAuNTYyNSw2MDIuMjUgUTEzMjAuNTYyNSw2MDIuMjUgMTMyMC41NjI1LDYxMS40Mzc1IEwxMzIyLjMxMjUsNjExLjQzNzUgWiBNMTMyNS44NzUsNjExLjQzNzUgTDEzMjcuNjI1LDYxMS40Mzc1IFExMzI3LjYyNSw2MTEuNDM3NSAxMzI3LjYyNSw2MDguNjI1IEwxMzI1Ljg3NSw2MDguNjI1IFExMzI1Ljg3NSw2MDguNjI1IDEzMjUuODc1LDYxMS40Mzc1IFogTTEzMjUuODc1LDYwMi4yNSBRMTMyNS44NzUsNjAyLjI1IDEzMjUuODc1LDYwNS4wNjI1IEwxMzI3LjYyNSw2MDUuMDYyNSBRMTMyNy42MjUsNjA1LjA2MjUgMTMyNy42MjUsNjAyLjI1IEwxMzI1Ljg3NSw2MDIuMjUgWiBNMTMyMS42MjUsNjAyLjkzNzUgTDEzMjYuNTYyNSw2MDIuOTM3NSBMMTMyNi41NjI1LDYwMS4xODc1IEwxMzIxLjYyNSw2MDEuMTg3NSBMMTMyMS42MjUsNjAyLjkzNzUgWiAiIGZpbGw9IiMwMDAwMDAiLz48dGV4dCBmaWxsPSIjMDAwMDAwIiBmb250LWZhbWlseT0ic2Fucy1zZXJpZiIgZm9udC1zaXplPSIxNCIgbGVuZ3RoQWRqdXN0PSJzcGFjaW5nIiB0ZXh0TGVuZ3RoPSI1MSIgeD0iMTMzOCIgeT0iNjEyLjI0MjIiPmNvbW1lbnQ8L3RleHQ+PGxpbmUgc3R5bGU9InN0cm9rZTojMDAwMDAwO3N0cm9rZS13aWR0aDowLjU7IiB4MT0iMTMxMCIgeDI9IjEzOTEiIHkxPSI2MjIuNSIgeTI9IjYyMi41Ii8+PGxpbmUgc3R5bGU9InN0cm9rZTojMDAwMDAwO3N0cm9rZS13aWR0aDowLjU7IiB4MT0iMTMxMCIgeDI9IjEzOTEiIHkxPSI2MzAuNSIgeTI9IjYzMC41Ii8+PC9nPjwhLS1jbGFzcyByYW5rX2xpc3QtLT48ZyBpZD0iZWxlbV9yYW5rX2xpc3QiPjxyZWN0IGZpbGw9IiNGRkZGRkYiIGhlaWdodD0iNDgiIGlkPSJyYW5rX2xpc3QiIHJ4PSIyLjUiIHJ5PSIyLjUiIHN0eWxlPSJzdHJva2U6IzAwMDAwMDtzdHJva2Utd2lkdGg6MC41OyIgd2lkdGg9Ijk1IiB4PSIxNDI3IiB5PSI1OTAuNSIvPjxlbGxpcHNlIGN4PSIxNDQyIiBjeT0iNjA2LjUiIGZpbGw9IiNBREQxQjIiIHJ4PSIxMSIgcnk9IjExIiBzdHlsZT0ic3Ryb2tlOiMxODE4MTg7c3Ryb2tlLXdpZHRoOjEuMDsiLz48cGF0aCBkPSJNMTQzOS42MjUsNjEwLjc1IEwxNDM5LjYyNSw2MTIuNSBMMTQ0NC41NjI1LDYxMi41IEwxNDQ0LjU2MjUsNjEwLjc1IEwxNDM5LjYyNSw2MTAuNzUgWiBNMTQ0MC4zMTI1LDYxMS40Mzc1IFExNDQwLjMxMjUsNjExLjQzNzUgMTQ0MC4zMTI1LDYwMi4yNSBMMTQzOC41NjI1LDYwMi4yNSBRMTQzOC41NjI1LDYwMi4yNSAxNDM4LjU2MjUsNjExLjQzNzUgTDE0NDAuMzEyNSw2MTEuNDM3NSBaIE0xNDQzLjg3NSw2MTEuNDM3NSBMMTQ0NS42MjUsNjExLjQzNzUgUTE0NDUuNjI1LDYxMS40Mzc1IDE0NDUuNjI1LDYwOC42MjUgTDE0NDMuODc1LDYwOC42MjUgUTE0NDMuODc1LDYwOC42MjUgMTQ0My44NzUsNjExLjQzNzUgWiBNMTQ0My44NzUsNjAyLjI1IFExNDQzLjg3NSw2MDIuMjUgMTQ0My44NzUsNjA1LjA2MjUgTDE0NDUuNjI1LDYwNS4wNjI1IFExNDQ1LjYyNSw2MDUuMDYyNSAxNDQ1LjYyNSw2MDIuMjUgTDE0NDMuODc1LDYwMi4yNSBaIE0xNDM5LjYyNSw2MDIuOTM3NSBMMTQ0NC41NjI1LDYwMi45Mzc1IEwxNDQ0LjU2MjUsNjAxLjE4NzUgTDE0MzkuNjI1LDYwMS4xODc1IEwxNDM5LjYyNSw2MDIuOTM3NSBaICIgZmlsbD0iIzAwMDAwMCIvPjx0ZXh0IGZpbGw9IiMwMDAwMDAiIGZvbnQtZmFtaWx5PSJzYW5zLXNlcmlmIiBmb250LXNpemU9IjE0IiBsZW5ndGhBZGp1c3Q9InNwYWNpbmciIHRleHRMZW5ndGg9IjYzIiB4PSIxNDU2IiB5PSI2MTIuMjQyMiI+cmFua19saXN0PC90ZXh0PjxsaW5lIHN0eWxlPSJzdHJva2U6IzAwMDAwMDtzdHJva2Utd2lkdGg6MC41OyIgeDE9IjE0MjgiIHgyPSIxNTIxIiB5MT0iNjIyLjUiIHkyPSI2MjIuNSIvPjxsaW5lIHN0eWxlPSJzdHJva2U6IzAwMDAwMDtzdHJva2Utd2lkdGg6MC41OyIgeDE9IjE0MjgiIHgyPSIxNTIxIiB5MT0iNjMwLjUiIHkyPSI2MzAuNSIvPjwvZz48IS0tY2xhc3MgdXNlcl9zdXBwb3J0LS0+PGcgaWQ9ImVsZW1fdXNlcl9zdXBwb3J0Ij48cmVjdCBmaWxsPSIjRkZGRkZGIiBoZWlnaHQ9IjQ4IiBpZD0idXNlcl9zdXBwb3J0IiByeD0iMi41IiByeT0iMi41IiBzdHlsZT0ic3Ryb2tlOiMwMDAwMDA7c3Ryb2tlLXdpZHRoOjAuNTsiIHdpZHRoPSIxMTYiIHg9IjExODYuNSIgeT0iNzY2Ii8+PGVsbGlwc2UgY3g9IjEyMDEuNSIgY3k9Ijc4MiIgZmlsbD0iI0FERDFCMiIgcng9IjExIiByeT0iMTEiIHN0eWxlPSJzdHJva2U6IzE4MTgxODtzdHJva2Utd2lkdGg6MS4wOyIvPjxwYXRoIGQ9Ik0xMTk5LjEyNSw3ODYuMjUgTDExOTkuMTI1LDc4OCBMMTIwNC4wNjI1LDc4OCBMMTIwNC4wNjI1LDc4Ni4yNSBMMTE5OS4xMjUsNzg2LjI1IFogTTExOTkuODEyNSw3ODYuOTM3NSBRMTE5OS44MTI1LDc4Ni45Mzc1IDExOTkuODEyNSw3NzcuNzUgTDExOTguMDYyNSw3NzcuNzUgUTExOTguMDYyNSw3NzcuNzUgMTE5OC4wNjI1LDc4Ni45Mzc1IEwxMTk5LjgxMjUsNzg2LjkzNzUgWiBNMTIwMy4zNzUsNzg2LjkzNzUgTDEyMDUuMTI1LDc4Ni45Mzc1IFExMjA1LjEyNSw3ODYuOTM3NSAxMjA1LjEyNSw3ODQuMTI1IEwxMjAzLjM3NSw3ODQuMTI1IFExMjAzLjM3NSw3ODQuMTI1IDEyMDMuMzc1LDc4Ni45Mzc1IFogTTEyMDMuMzc1LDc3Ny43NSBRMTIwMy4zNzUsNzc3Ljc1IDEyMDMuMzc1LDc4MC41NjI1IEwxMjA1LjEyNSw3ODAuNTYyNSBRMTIwNS4xMjUsNzgwLjU2MjUgMTIwNS4xMjUsNzc3Ljc1IEwxMjAzLjM3NSw3NzcuNzUgWiBNMTE5OS4xMjUsNzc4LjQzNzUgTDEyMDQuMDYyNSw3NzguNDM3NSBMMTIwNC4wNjI1LDc3Ni42ODc1IEwxMTk5LjEyNSw3NzYuNjg3NSBMMTE5OS4xMjUsNzc4LjQzNzUgWiAiIGZpbGw9IiMwMDAwMDAiLz48dGV4dCBmaWxsPSIjMDAwMDAwIiBmb250LWZhbWlseT0ic2Fucy1zZXJpZiIgZm9udC1zaXplPSIxNCIgbGVuZ3RoQWRqdXN0PSJzcGFjaW5nIiB0ZXh0TGVuZ3RoPSI4NCIgeD0iMTIxNS41IiB5PSI3ODcuNzQyMiI+dXNlcl9zdXBwb3J0PC90ZXh0PjxsaW5lIHN0eWxlPSJzdHJva2U6IzAwMDAwMDtzdHJva2Utd2lkdGg6MC41OyIgeDE9IjExODcuNSIgeDI9IjEzMDEuNSIgeTE9Ijc5OCIgeTI9Ijc5OCIvPjxsaW5lIHN0eWxlPSJzdHJva2U6IzAwMDAwMDtzdHJva2Utd2lkdGg6MC41OyIgeDE9IjExODcuNSIgeDI9IjEzMDEuNSIgeTE9IjgwNiIgeTI9IjgwNiIvPjwvZz48IS0tY2xhc3Mgc2luZ2VyLS0+PGcgaWQ9ImVsZW1fc2luZ2VyIj48cmVjdCBmaWxsPSIjRkZGRkZGIiBoZWlnaHQ9IjQ4IiBpZD0ic2luZ2VyIiByeD0iMi41IiByeT0iMi41IiBzdHlsZT0ic3Ryb2tlOiMwMDAwMDA7c3Ryb2tlLXdpZHRoOjAuNTsiIHdpZHRoPSI3NCIgeD0iMTMxMy41IiB5PSI5NyIvPjxlbGxpcHNlIGN4PSIxMzI4LjUiIGN5PSIxMTMiIGZpbGw9IiNBREQxQjIiIHJ4PSIxMSIgcnk9IjExIiBzdHlsZT0ic3Ryb2tlOiMxODE4MTg7c3Ryb2tlLXdpZHRoOjEuMDsiLz48cGF0aCBkPSJNMTMyNi4xMjUsMTE3LjI1IEwxMzI2LjEyNSwxMTkgTDEzMzEuMDYyNSwxMTkgTDEzMzEuMDYyNSwxMTcuMjUgTDEzMjYuMTI1LDExNy4yNSBaIE0xMzI2LjgxMjUsMTE3LjkzNzUgUTEzMjYuODEyNSwxMTcuOTM3NSAxMzI2LjgxMjUsMTA4Ljc1IEwxMzI1LjA2MjUsMTA4Ljc1IFExMzI1LjA2MjUsMTA4Ljc1IDEzMjUuMDYyNSwxMTcuOTM3NSBMMTMyNi44MTI1LDExNy45Mzc1IFogTTEzMzAuMzc1LDExNy45Mzc1IEwxMzMyLjEyNSwxMTcuOTM3NSBRMTMzMi4xMjUsMTE3LjkzNzUgMTMzMi4xMjUsMTE1LjEyNSBMMTMzMC4zNzUsMTE1LjEyNSBRMTMzMC4zNzUsMTE1LjEyNSAxMzMwLjM3NSwxMTcuOTM3NSBaIE0xMzMwLjM3NSwxMDguNzUgUTEzMzAuMzc1LDEwOC43NSAxMzMwLjM3NSwxMTEuNTYyNSBMMTMzMi4xMjUsMTExLjU2MjUgUTEzMzIuMTI1LDExMS41NjI1IDEzMzIuMTI1LDEwOC43NSBMMTMzMC4zNzUsMTA4Ljc1IFogTTEzMjYuMTI1LDEwOS40Mzc1IEwxMzMxLjA2MjUsMTA5LjQzNzUgTDEzMzEuMDYyNSwxMDcuNjg3NSBMMTMyNi4xMjUsMTA3LjY4NzUgTDEzMjYuMTI1LDEwOS40Mzc1IFogIiBmaWxsPSIjMDAwMDAwIi8+PHRleHQgZmlsbD0iIzAwMDAwMCIgZm9udC1mYW1pbHk9InNhbnMtc2VyaWYiIGZvbnQtc2l6ZT0iMTQiIGxlbmd0aEFkanVzdD0ic3BhY2luZyIgdGV4dExlbmd0aD0iNDIiIHg9IjEzNDIuNSIgeT0iMTE4Ljc0MjIiPnNpbmdlcjwvdGV4dD48bGluZSBzdHlsZT0ic3Ryb2tlOiMwMDAwMDA7c3Ryb2tlLXdpZHRoOjAuNTsiIHgxPSIxMzE0LjUiIHgyPSIxMzg2LjUiIHkxPSIxMjkiIHkyPSIxMjkiLz48bGluZSBzdHlsZT0ic3Ryb2tlOiMwMDAwMDA7c3Ryb2tlLXdpZHRoOjAuNTsiIHgxPSIxMzE0LjUiIHgyPSIxMzg2LjUiIHkxPSIxMzciIHkyPSIxMzciLz48L2c+PCEtLWNsYXNzIHNvbmctLT48ZyBpZD0iZWxlbV9zb25nIj48cmVjdCBmaWxsPSIjRkZGRkZGIiBoZWlnaHQ9IjQ4IiBpZD0ic29uZyIgcng9IjIuNSIgcnk9IjIuNSIgc3R5bGU9InN0cm9rZTojMDAwMDAwO3N0cm9rZS13aWR0aDowLjU7IiB3aWR0aD0iNjAiIHg9IjEzMjAuNSIgeT0iMzU1Ii8+PGVsbGlwc2UgY3g9IjEzMzUuNSIgY3k9IjM3MSIgZmlsbD0iI0FERDFCMiIgcng9IjExIiByeT0iMTEiIHN0eWxlPSJzdHJva2U6IzE4MTgxODtzdHJva2Utd2lkdGg6MS4wOyIvPjxwYXRoIGQ9Ik0xMzMzLjEyNSwzNzUuMjUgTDEzMzMuMTI1LDM3NyBMMTMzOC4wNjI1LDM3NyBMMTMzOC4wNjI1LDM3NS4yNSBMMTMzMy4xMjUsMzc1LjI1IFogTTEzMzMuODEyNSwzNzUuOTM3NSBRMTMzMy44MTI1LDM3NS45Mzc1IDEzMzMuODEyNSwzNjYuNzUgTDEzMzIuMDYyNSwzNjYuNzUgUTEzMzIuMDYyNSwzNjYuNzUgMTMzMi4wNjI1LDM3NS45Mzc1IEwxMzMzLjgxMjUsMzc1LjkzNzUgWiBNMTMzNy4zNzUsMzc1LjkzNzUgTDEzMzkuMTI1LDM3NS45Mzc1IFExMzM5LjEyNSwzNzUuOTM3NSAxMzM5LjEyNSwzNzMuMTI1IEwxMzM3LjM3NSwzNzMuMTI1IFExMzM3LjM3NSwzNzMuMTI1IDEzMzcuMzc1LDM3NS45Mzc1IFogTTEzMzcuMzc1LDM2Ni43NSBRMTMzNy4zNzUsMzY2Ljc1IDEzMzcuMzc1LDM2OS41NjI1IEwxMzM5LjEyNSwzNjkuNTYyNSBRMTMzOS4xMjUsMzY5LjU2MjUgMTMzOS4xMjUsMzY2Ljc1IEwxMzM3LjM3NSwzNjYuNzUgWiBNMTMzMy4xMjUsMzY3LjQzNzUgTDEzMzguMDYyNSwzNjcuNDM3NSBMMTMzOC4wNjI1LDM2NS42ODc1IEwxMzMzLjEyNSwzNjUuNjg3NSBMMTMzMy4xMjUsMzY3LjQzNzUgWiAiIGZpbGw9IiMwMDAwMDAiLz48dGV4dCBmaWxsPSIjMDAwMDAwIiBmb250LWZhbWlseT0ic2Fucy1zZXJpZiIgZm9udC1zaXplPSIxNCIgbGVuZ3RoQWRqdXN0PSJzcGFjaW5nIiB0ZXh0TGVuZ3RoPSIyOCIgeD0iMTM0OS41IiB5PSIzNzYuNzQyMiI+c29uZzwvdGV4dD48bGluZSBzdHlsZT0ic3Ryb2tlOiMwMDAwMDA7c3Ryb2tlLXdpZHRoOjAuNTsiIHgxPSIxMzIxLjUiIHgyPSIxMzc5LjUiIHkxPSIzODciIHkyPSIzODciLz48bGluZSBzdHlsZT0ic3Ryb2tlOiMwMDAwMDA7c3Ryb2tlLXdpZHRoOjAuNTsiIHgxPSIxMzIxLjUiIHgyPSIxMzc5LjUiIHkxPSIzOTUiIHkyPSIzOTUiLz48L2c+PCEtLWNsYXNzIGxpc3Rfc29uZy0tPjxnIGlkPSJlbGVtX2xpc3Rfc29uZyI+PHJlY3QgZmlsbD0iI0ZGRkZGRiIgaGVpZ2h0PSI0OCIgaWQ9Imxpc3Rfc29uZyIgcng9IjIuNSIgcnk9IjIuNSIgc3R5bGU9InN0cm9rZTojMDAwMDAwO3N0cm9rZS13aWR0aDowLjU7IiB3aWR0aD0iOTUiIHg9IjE1NTciIHk9IjU5MC41Ii8+PGVsbGlwc2UgY3g9IjE1NzIiIGN5PSI2MDYuNSIgZmlsbD0iI0FERDFCMiIgcng9IjExIiByeT0iMTEiIHN0eWxlPSJzdHJva2U6IzE4MTgxODtzdHJva2Utd2lkdGg6MS4wOyIvPjxwYXRoIGQ9Ik0xNTY5LjYyNSw2MTAuNzUgTDE1NjkuNjI1LDYxMi41IEwxNTc0LjU2MjUsNjEyLjUgTDE1NzQuNTYyNSw2MTAuNzUgTDE1NjkuNjI1LDYxMC43NSBaIE0xNTcwLjMxMjUsNjExLjQzNzUgUTE1NzAuMzEyNSw2MTEuNDM3NSAxNTcwLjMxMjUsNjAyLjI1IEwxNTY4LjU2MjUsNjAyLjI1IFExNTY4LjU2MjUsNjAyLjI1IDE1NjguNTYyNSw2MTEuNDM3NSBMMTU3MC4zMTI1LDYxMS40Mzc1IFogTTE1NzMuODc1LDYxMS40Mzc1IEwxNTc1LjYyNSw2MTEuNDM3NSBRMTU3NS42MjUsNjExLjQzNzUgMTU3NS42MjUsNjA4LjYyNSBMMTU3My44NzUsNjA4LjYyNSBRMTU3My44NzUsNjA4LjYyNSAxNTczLjg3NSw2MTEuNDM3NSBaIE0xNTczLjg3NSw2MDIuMjUgUTE1NzMuODc1LDYwMi4yNSAxNTczLjg3NSw2MDUuMDYyNSBMMTU3NS42MjUsNjA1LjA2MjUgUTE1NzUuNjI1LDYwNS4wNjI1IDE1NzUuNjI1LDYwMi4yNSBMMTU3My44NzUsNjAyLjI1IFogTTE1NjkuNjI1LDYwMi45Mzc1IEwxNTc0LjU2MjUsNjAyLjkzNzUgTDE1NzQuNTYyNSw2MDEuMTg3NSBMMTU2OS42MjUsNjAxLjE4NzUgTDE1NjkuNjI1LDYwMi45Mzc1IFogIiBmaWxsPSIjMDAwMDAwIi8+PHRleHQgZmlsbD0iIzAwMDAwMCIgZm9udC1mYW1pbHk9InNhbnMtc2VyaWYiIGZvbnQtc2l6ZT0iMTQiIGxlbmd0aEFkanVzdD0ic3BhY2luZyIgdGV4dExlbmd0aD0iNjMiIHg9IjE1ODYiIHk9IjYxMi4yNDIyIj5saXN0X3Nvbmc8L3RleHQ+PGxpbmUgc3R5bGU9InN0cm9rZTojMDAwMDAwO3N0cm9rZS13aWR0aDowLjU7IiB4MT0iMTU1OCIgeDI9IjE2NTEiIHkxPSI2MjIuNSIgeTI9IjYyMi41Ii8+PGxpbmUgc3R5bGU9InN0cm9rZTojMDAwMDAwO3N0cm9rZS13aWR0aDowLjU7IiB4MT0iMTU1OCIgeDI9IjE2NTEiIHkxPSI2MzAuNSIgeTI9IjYzMC41Ii8+PC9nPjwhLS1jbGFzcyBzb25nX2xpc3QtLT48ZyBpZD0iZWxlbV9zb25nX2xpc3QiPjxyZWN0IGZpbGw9IiNGRkZGRkYiIGhlaWdodD0iNDgiIGlkPSJzb25nX2xpc3QiIHJ4PSIyLjUiIHJ5PSIyLjUiIHN0eWxlPSJzdHJva2U6IzAwMDAwMDtzdHJva2Utd2lkdGg6MC41OyIgd2lkdGg9Ijk1IiB4PSIxNDIyIiB5PSIzNTUiLz48ZWxsaXBzZSBjeD0iMTQzNyIgY3k9IjM3MSIgZmlsbD0iI0FERDFCMiIgcng9IjExIiByeT0iMTEiIHN0eWxlPSJzdHJva2U6IzE4MTgxODtzdHJva2Utd2lkdGg6MS4wOyIvPjxwYXRoIGQ9Ik0xNDM0LjYyNSwzNzUuMjUgTDE0MzQuNjI1LDM3NyBMMTQzOS41NjI1LDM3NyBMMTQzOS41NjI1LDM3NS4yNSBMMTQzNC42MjUsMzc1LjI1IFogTTE0MzUuMzEyNSwzNzUuOTM3NSBRMTQzNS4zMTI1LDM3NS45Mzc1IDE0MzUuMzEyNSwzNjYuNzUgTDE0MzMuNTYyNSwzNjYuNzUgUTE0MzMuNTYyNSwzNjYuNzUgMTQzMy41NjI1LDM3NS45Mzc1IEwxNDM1LjMxMjUsMzc1LjkzNzUgWiBNMTQzOC44NzUsMzc1LjkzNzUgTDE0NDAuNjI1LDM3NS45Mzc1IFExNDQwLjYyNSwzNzUuOTM3NSAxNDQwLjYyNSwzNzMuMTI1IEwxNDM4Ljg3NSwzNzMuMTI1IFExNDM4Ljg3NSwzNzMuMTI1IDE0MzguODc1LDM3NS45Mzc1IFogTTE0MzguODc1LDM2Ni43NSBRMTQzOC44NzUsMzY2Ljc1IDE0MzguODc1LDM2OS41NjI1IEwxNDQwLjYyNSwzNjkuNTYyNSBRMTQ0MC42MjUsMzY5LjU2MjUgMTQ0MC42MjUsMzY2Ljc1IEwxNDM4Ljg3NSwzNjYuNzUgWiBNMTQzNC42MjUsMzY3LjQzNzUgTDE0MzkuNTYyNSwzNjcuNDM3NSBMMTQzOS41NjI1LDM2NS42ODc1IEwxNDM0LjYyNSwzNjUuNjg3NSBMMTQzNC42MjUsMzY3LjQzNzUgWiAiIGZpbGw9IiMwMDAwMDAiLz48dGV4dCBmaWxsPSIjMDAwMDAwIiBmb250LWZhbWlseT0ic2Fucy1zZXJpZiIgZm9udC1zaXplPSIxNCIgbGVuZ3RoQWRqdXN0PSJzcGFjaW5nIiB0ZXh0TGVuZ3RoPSI2MyIgeD0iMTQ1MSIgeT0iMzc2Ljc0MjIiPnNvbmdfbGlzdDwvdGV4dD48bGluZSBzdHlsZT0ic3Ryb2tlOiMwMDAwMDA7c3Ryb2tlLXdpZHRoOjAuNTsiIHgxPSIxNDIzIiB4Mj0iMTUxNiIgeTE9IjM4NyIgeTI9IjM4NyIvPjxsaW5lIHN0eWxlPSJzdHJva2U6IzAwMDAwMDtzdHJva2Utd2lkdGg6MC41OyIgeDE9IjE0MjMiIHgyPSIxNTE2IiB5MT0iMzk1IiB5Mj0iMzk1Ii8+PC9nPjwhLS1saW5rIGNvbnN1bWVyIHRvIGNvbGxlY3QtLT48ZyBpZD0ibGlua19jb25zdW1lcl9jb2xsZWN0Ij48cGF0aCBjb2RlTGluZT0iMTIwIiBkPSJNMTIyMCw0MTEuMzIgQzEyMjAsNDU2LjU2IDEyMjAsNTI3LjE3IDEyMjAsNTcyLjMyICIgZmlsbD0ibm9uZSIgaWQ9ImNvbnN1bWVyLWNvbGxlY3QiIHN0eWxlPSJzdHJva2U6IzAwMDAwMDtzdHJva2Utd2lkdGg6MS4wOyIvPjxsaW5lIHN0eWxlPSJzdHJva2U6IzAwMDAwMDtzdHJva2Utd2lkdGg6MS4wOyIgeDE9IjEyMTYiIHgyPSIxMjI0IiB5MT0iNDA3LjMyIiB5Mj0iNDA3LjMyIi8+PGxpbmUgc3R5bGU9InN0cm9rZTojMDAwMDAwO3N0cm9rZS13aWR0aDoxLjA7IiB4MT0iMTIxNiIgeDI9IjEyMjQiIHkxPSI0MTAuMzIiIHkyPSI0MTAuMzIiLz48bGluZSBzdHlsZT0ic3Ryb2tlOiMwMDAwMDA7c3Ryb2tlLXdpZHRoOjEuMDsiIHgxPSIxMjIwIiB4Mj0iMTIyMCIgeTE9IjQxMS4zMiIgeTI9IjQwMy4zMiIvPjxsaW5lIHN0eWxlPSJzdHJva2U6IzAwMDAwMDtzdHJva2Utd2lkdGg6MS4wOyIgeDE9IjEyMjAiIHgyPSIxMjI2IiB5MT0iNTgyLjMyIiB5Mj0iNTkwLjMyIi8+PGxpbmUgc3R5bGU9InN0cm9rZTojMDAwMDAwO3N0cm9rZS13aWR0aDoxLjA7IiB4MT0iMTIyMCIgeDI9IjEyMTQiIHkxPSI1ODIuMzIiIHkyPSI1OTAuMzIiLz48bGluZSBzdHlsZT0ic3Ryb2tlOiMwMDAwMDA7c3Ryb2tlLXdpZHRoOjEuMDsiIHgxPSIxMjIwIiB4Mj0iMTIyMCIgeTE9IjU4Mi4zMiIgeTI9IjU5MC4zMiIvPjxlbGxpcHNlIGN4PSIxMjIwIiBjeT0iNTc2LjMyIiBmaWxsPSJub25lIiByeD0iNCIgcnk9IjQiIHN0eWxlPSJzdHJva2U6IzAwMDAwMDtzdHJva2Utd2lkdGg6MS4wOyIvPjx0ZXh0IGZpbGw9IiMwMDAwMDAiIGZvbnQtZmFtaWx5PSJzYW5zLXNlcmlmIiBmb250LXNpemU9IjEzIiBsZW5ndGhBZGp1c3Q9InNwYWNpbmciIHRleHRMZW5ndGg9IjE4OSIgeD0iMTAzMCIgeT0iNDk1LjEwOTEiPiYjMTk5Njg7JiMyMDAxMDsmIzI5OTkyOyYjMjUxNDM7JiMyMTQ4NzsmIzIwMTk3OyYjMjU5MTA7JiMzNDI1NTsmIzIyODEwOyYjMjAwMTA7JiMyNzQ2ODsmIzI2MzU0Oy8mIzI3NDY4OyYjMjEzMzM7PC90ZXh0PjwvZz48IS0tbGluayBjb25zdW1lciB0byBjb21tZW50LS0+PGcgaWQ9ImxpbmtfY29uc3VtZXJfY29tbWVudCI+PHBhdGggY29kZUxpbmU9IjEyMSIgZD0iTTEyNzgsNDExLjM3IEMxMjc4LDQ3MS42NiAxMjc4LDYxNSAxMjc4LDYxNSBDMTI3OCw2MTUgMTI3NC42Myw2MTUgMTI5MC43NSw2MTUgIiBmaWxsPSJub25lIiBpZD0iY29uc3VtZXItY29tbWVudCIgc3R5bGU9InN0cm9rZTojMDAwMDAwO3N0cm9rZS13aWR0aDoxLjA7Ii8+PGxpbmUgc3R5bGU9InN0cm9rZTojMDAwMDAwO3N0cm9rZS13aWR0aDoxLjA7IiB4MT0iMTI3NCIgeDI9IjEyODIiIHkxPSI0MDcuMzciIHkyPSI0MDcuMzciLz48bGluZSBzdHlsZT0ic3Ryb2tlOiMwMDAwMDA7c3Ryb2tlLXdpZHRoOjEuMDsiIHgxPSIxMjc0IiB4Mj0iMTI4MiIgeTE9IjQxMC4zNyIgeTI9IjQxMC4zNyIvPjxsaW5lIHN0eWxlPSJzdHJva2U6IzAwMDAwMDtzdHJva2Utd2lkdGg6MS4wOyIgeDE9IjEyNzgiIHgyPSIxMjc4IiB5MT0iNDExLjM3IiB5Mj0iNDAzLjM3Ii8+PGxpbmUgc3R5bGU9InN0cm9rZTojMDAwMDAwO3N0cm9rZS13aWR0aDoxLjA7IiB4MT0iMTMwMC43NSIgeDI9IjEzMDguNzUiIHkxPSI2MTUiIHkyPSI2MDkiLz48bGluZSBzdHlsZT0ic3Ryb2tlOiMwMDAwMDA7c3Ryb2tlLXdpZHRoOjEuMDsiIHgxPSIxMzAwLjc1IiB4Mj0iMTMwOC43NSIgeTE9IjYxNSIgeTI9IjYyMSIvPjxsaW5lIHN0eWxlPSJzdHJva2U6IzAwMDAwMDtzdHJva2Utd2lkdGg6MS4wOyIgeDE9IjEzMDAuNzUiIHgyPSIxMzA4Ljc1IiB5MT0iNjE1IiB5Mj0iNjE1Ii8+PGVsbGlwc2UgY3g9IjEyOTQuNzUiIGN5PSI2MTUiIGZpbGw9Im5vbmUiIHJ4PSI0IiByeT0iNCIgc3R5bGU9InN0cm9rZTojMDAwMDAwO3N0cm9rZS13aWR0aDoxLjA7Ii8+PHRleHQgZmlsbD0iIzAwMDAwMCIgZm9udC1mYW1pbHk9InNhbnMtc2VyaWYiIGZvbnQtc2l6ZT0iMTMiIGxlbmd0aEFkanVzdD0ic3BhY2luZyIgdGV4dExlbmd0aD0iMTU2IiB4PSIxMTIxIiB5PSI1MjIuODQ5MSI+JiMxOTk2ODsmIzIwMDEwOyYjMjk5OTI7JiMyNTE0MzsmIzIxNDg3OyYjMjAxOTc7JiMyMTQ1NzsmIzM0OTIwOyYjMjI4MTA7JiMyMDAxMDsmIzM1NzgwOyYjMzU3NzA7PC90ZXh0PjwvZz48IS0tbGluayBjb25zdW1lciB0byByYW5rX2xpc3QtLT48ZyBpZD0ibGlua19jb25zdW1lcl9yYW5rX2xpc3QiPjxwYXRoIGNvZGVMaW5lPSIxMjIiIGQ9Ik0xMjgwLDQxMS4zIEMxMjgwLDQzNS4xNiAxMjgwLDQ2MCAxMjgwLDQ2MCBDMTI4MCw0NjAgMTQ0OS41LDQ2MCAxNDQ5LjUsNDYwIEMxNDQ5LjUsNDYwIDE0NDkuNSw1MjguOTEgMTQ0OS41LDU3Mi4zNiAiIGZpbGw9Im5vbmUiIGlkPSJjb25zdW1lci1yYW5rX2xpc3QiIHN0eWxlPSJzdHJva2U6IzAwMDAwMDtzdHJva2Utd2lkdGg6MS4wOyIvPjxsaW5lIHN0eWxlPSJzdHJva2U6IzAwMDAwMDtzdHJva2Utd2lkdGg6MS4wOyIgeDE9IjEyNzYiIHgyPSIxMjg0IiB5MT0iNDA3LjMiIHkyPSI0MDcuMyIvPjxsaW5lIHN0eWxlPSJzdHJva2U6IzAwMDAwMDtzdHJva2Utd2lkdGg6MS4wOyIgeDE9IjEyNzYiIHgyPSIxMjg0IiB5MT0iNDEwLjMiIHkyPSI0MTAuMyIvPjxsaW5lIHN0eWxlPSJzdHJva2U6IzAwMDAwMDtzdHJva2Utd2lkdGg6MS4wOyIgeDE9IjEyODAiIHgyPSIxMjgwIiB5MT0iNDExLjMiIHkyPSI0MDMuMyIvPjxsaW5lIHN0eWxlPSJzdHJva2U6IzAwMDAwMDtzdHJva2Utd2lkdGg6MS4wOyIgeDE9IjE0NDkuNSIgeDI9IjE0NTUuNSIgeTE9IjU4Mi4zNiIgeTI9IjU5MC4zNiIvPjxsaW5lIHN0eWxlPSJzdHJva2U6IzAwMDAwMDtzdHJva2Utd2lkdGg6MS4wOyIgeDE9IjE0NDkuNSIgeDI9IjE0NDMuNSIgeTE9IjU4Mi4zNiIgeTI9IjU5MC4zNiIvPjxsaW5lIHN0eWxlPSJzdHJva2U6IzAwMDAwMDtzdHJva2Utd2lkdGg6MS4wOyIgeDE9IjE0NDkuNSIgeDI9IjE0NDkuNSIgeTE9IjU4Mi4zNiIgeTI9IjU5MC4zNiIvPjxlbGxpcHNlIGN4PSIxNDQ5LjUiIGN5PSI1NzYuMzYiIGZpbGw9Im5vbmUiIHJ4PSI0IiByeT0iNCIgc3R5bGU9InN0cm9rZTojMDAwMDAwO3N0cm9rZS13aWR0aDoxLjA7Ii8+PHRleHQgZmlsbD0iIzAwMDAwMCIgZm9udC1mYW1pbHk9InNhbnMtc2VyaWYiIGZvbnQtc2l6ZT0iMTMiIGxlbmd0aEFkanVzdD0ic3BhY2luZyIgdGV4dExlbmd0aD0iMTY5IiB4PSIxMjMxLjU4IiB5PSI0NTguMjg5MSI+JiMxOTk2ODsmIzIwMDEwOyYjMjk5OTI7JiMyNTE0MzsmIzIxNDg3OyYjMjAxOTc7JiMzMjQ3MzsmIzIyODEwOyYjMjAwMTA7JiMyNzQ2ODsmIzIxMzMzOyYjMzU3ODA7JiMyMDk5ODs8L3RleHQ+PC9nPjwhLS1saW5rIGNvbnN1bWVyIHRvIHVzZXJfc3VwcG9ydC0tPjxnIGlkPSJsaW5rX2NvbnN1bWVyX3VzZXJfc3VwcG9ydCI+PHBhdGggY29kZUxpbmU9IjEyMyIgZD0iTTEyNzYsNDExLjE4IEMxMjc2LDQ4NC4wNSAxMjc2LDY3NS4wMiAxMjc2LDc0Ny44NSAiIGZpbGw9Im5vbmUiIGlkPSJjb25zdW1lci11c2VyX3N1cHBvcnQiIHN0eWxlPSJzdHJva2U6IzAwMDAwMDtzdHJva2Utd2lkdGg6MS4wOyIvPjxsaW5lIHN0eWxlPSJzdHJva2U6IzAwMDAwMDtzdHJva2Utd2lkdGg6MS4wOyIgeDE9IjEyNzIiIHgyPSIxMjgwIiB5MT0iNDA3LjE4IiB5Mj0iNDA3LjE4Ii8+PGxpbmUgc3R5bGU9InN0cm9rZTojMDAwMDAwO3N0cm9rZS13aWR0aDoxLjA7IiB4MT0iMTI3MiIgeDI9IjEyODAiIHkxPSI0MTAuMTgiIHkyPSI0MTAuMTgiLz48bGluZSBzdHlsZT0ic3Ryb2tlOiMwMDAwMDA7c3Ryb2tlLXdpZHRoOjEuMDsiIHgxPSIxMjc2IiB4Mj0iMTI3NiIgeTE9IjQxMS4xOCIgeTI9IjQwMy4xOCIvPjxsaW5lIHN0eWxlPSJzdHJva2U6IzAwMDAwMDtzdHJva2Utd2lkdGg6MS4wOyIgeDE9IjEyNzYiIHgyPSIxMjgyIiB5MT0iNzU3Ljg1IiB5Mj0iNzY1Ljg1Ii8+PGxpbmUgc3R5bGU9InN0cm9rZTojMDAwMDAwO3N0cm9rZS13aWR0aDoxLjA7IiB4MT0iMTI3NiIgeDI9IjEyNzAiIHkxPSI3NTcuODUiIHkyPSI3NjUuODUiLz48bGluZSBzdHlsZT0ic3Ryb2tlOiMwMDAwMDA7c3Ryb2tlLXdpZHRoOjEuMDsiIHgxPSIxMjc2IiB4Mj0iMTI3NiIgeTE9Ijc1Ny44NSIgeTI9Ijc2NS44NSIvPjxlbGxpcHNlIGN4PSIxMjc2IiBjeT0iNzUxLjg1IiBmaWxsPSJub25lIiByeD0iNCIgcnk9IjQiIHN0eWxlPSJzdHJva2U6IzAwMDAwMDtzdHJva2Utd2lkdGg6MS4wOyIvPjx0ZXh0IGZpbGw9IiMwMDAwMDAiIGZvbnQtZmFtaWx5PSJzYW5zLXNlcmlmIiBmb250LXNpemU9IjEzIiBsZW5ndGhBZGp1c3Q9InNwYWNpbmciIHRleHRMZW5ndGg9IjE1NiIgeD0iMTExOSIgeT0iNTgyLjgwOTEiPiYjMTk5Njg7JiMyMDAxMDsmIzI5OTkyOyYjMjUxNDM7JiMyMTQ4NzsmIzIwMTk3OyYjMjg4NTc7JiMzNjE5MDsmIzIyODEwOyYjMjAwMTA7JiMzNTc4MDsmIzM1NzcwOzwvdGV4dD48L2c+PCEtLWxpbmsgc2luZ2VyIHRvIHNvbmctLT48ZyBpZD0ibGlua19zaW5nZXJfc29uZyI+PHBhdGggY29kZUxpbmU9IjEyNiIgZD0iTTEzNTAuNSwxNTMuMjcgQzEzNTAuNSwyMDIuNTcgMTM1MC41LDI4Ny44OSAxMzUwLjUsMzM2Ljk4ICIgZmlsbD0ibm9uZSIgaWQ9InNpbmdlci1zb25nIiBzdHlsZT0ic3Ryb2tlOiMwMDAwMDA7c3Ryb2tlLXdpZHRoOjEuMDsiLz48bGluZSBzdHlsZT0ic3Ryb2tlOiMwMDAwMDA7c3Ryb2tlLXdpZHRoOjEuMDsiIHgxPSIxMzQ2LjUiIHgyPSIxMzU0LjUiIHkxPSIxNDkuMjciIHkyPSIxNDkuMjciLz48bGluZSBzdHlsZT0ic3Ryb2tlOiMwMDAwMDA7c3Ryb2tlLXdpZHRoOjEuMDsiIHgxPSIxMzQ2LjUiIHgyPSIxMzU0LjUiIHkxPSIxNTIuMjciIHkyPSIxNTIuMjciLz48bGluZSBzdHlsZT0ic3Ryb2tlOiMwMDAwMDA7c3Ryb2tlLXdpZHRoOjEuMDsiIHgxPSIxMzUwLjUiIHgyPSIxMzUwLjUiIHkxPSIxNTMuMjciIHkyPSIxNDUuMjciLz48bGluZSBzdHlsZT0ic3Ryb2tlOiMwMDAwMDA7c3Ryb2tlLXdpZHRoOjEuMDsiIHgxPSIxMzUwLjUiIHgyPSIxMzU2LjUiIHkxPSIzNDYuOTgiIHkyPSIzNTQuOTgiLz48bGluZSBzdHlsZT0ic3Ryb2tlOiMwMDAwMDA7c3Ryb2tlLXdpZHRoOjEuMDsiIHgxPSIxMzUwLjUiIHgyPSIxMzQ0LjUiIHkxPSIzNDYuOTgiIHkyPSIzNTQuOTgiLz48bGluZSBzdHlsZT0ic3Ryb2tlOiMwMDAwMDA7c3Ryb2tlLXdpZHRoOjEuMDsiIHgxPSIxMzUwLjUiIHgyPSIxMzUwLjUiIHkxPSIzNDYuOTgiIHkyPSIzNTQuOTgiLz48ZWxsaXBzZSBjeD0iMTM1MC41IiBjeT0iMzQwLjk4IiBmaWxsPSJub25lIiByeD0iNCIgcnk9IjQiIHN0eWxlPSJzdHJva2U6IzAwMDAwMDtzdHJva2Utd2lkdGg6MS4wOyIvPjx0ZXh0IGZpbGw9IiMwMDAwMDAiIGZvbnQtZmFtaWx5PSJzYW5zLXNlcmlmIiBmb250LXNpemU9IjEzIiBsZW5ndGhBZGp1c3Q9InNwYWNpbmciIHRleHRMZW5ndGg9IjE0MyIgeD0iMTIwNi41IiB5PSIyNDguNDE5MSI+JiMxOTk2ODsmIzIwMDEwOyYjMjc0Njg7JiMyNTE2MzsmIzIxNDg3OyYjMjAxOTc7JiMyNjM3NzsmIzIyODEwOyYjMzkzMTg7JiMyNzQ2ODsmIzI2MzU0OzwvdGV4dD48L2c+PCEtLWxpbmsgc29uZyB0byBjb2xsZWN0LS0+PGcgaWQ9Imxpbmtfc29uZ19jb2xsZWN0Ij48cGF0aCBjb2RlTGluZT0iMTI5IiBkPSJNMTMxMi4zOSwzNzkgQzEyOTYuNzQsMzc5IDEyODguODMsMzc5IDEyODguODMsMzc5IEMxMjg4LjgzLDM3OSAxMjg4LjgzLDYwMyAxMjg4LjgzLDYwMyBDMTI4OC44Myw2MDMgMTMwMC40NCw2MDMgMTI5Mi4wMSw2MDMgIiBmaWxsPSJub25lIiBpZD0ic29uZy1jb2xsZWN0IiBzdHlsZT0ic3Ryb2tlOiMwMDAwMDA7c3Ryb2tlLXdpZHRoOjEuMDsiLz48bGluZSBzdHlsZT0ic3Ryb2tlOiMwMDAwMDA7c3Ryb2tlLXdpZHRoOjEuMDsiIHgxPSIxMzE2LjM5IiB4Mj0iMTMxNi4zOSIgeTE9IjM3NSIgeTI9IjM4MyIvPjxsaW5lIHN0eWxlPSJzdHJva2U6IzAwMDAwMDtzdHJva2Utd2lkdGg6MS4wOyIgeDE9IjEzMTMuMzkiIHgyPSIxMzEzLjM5IiB5MT0iMzc1IiB5Mj0iMzgzIi8+PGxpbmUgc3R5bGU9InN0cm9rZTojMDAwMDAwO3N0cm9rZS13aWR0aDoxLjA7IiB4MT0iMTMxMi4zOSIgeDI9IjEzMjAuMzkiIHkxPSIzNzkiIHkyPSIzNzkiLz48bGluZSBzdHlsZT0ic3Ryb2tlOiMwMDAwMDA7c3Ryb2tlLXdpZHRoOjEuMDsiIHgxPSIxMjgyLjAxIiB4Mj0iMTI3NC4wMSIgeTE9IjYwMyIgeTI9IjYwOSIvPjxsaW5lIHN0eWxlPSJzdHJva2U6IzAwMDAwMDtzdHJva2Utd2lkdGg6MS4wOyIgeDE9IjEyODIuMDEiIHgyPSIxMjc0LjAxIiB5MT0iNjAzIiB5Mj0iNTk3Ii8+PGxpbmUgc3R5bGU9InN0cm9rZTojMDAwMDAwO3N0cm9rZS13aWR0aDoxLjA7IiB4MT0iMTI4Mi4wMSIgeDI9IjEyNzQuMDEiIHkxPSI2MDMiIHkyPSI2MDMiLz48ZWxsaXBzZSBjeD0iMTI4OC4wMSIgY3k9IjYwMyIgZmlsbD0ibm9uZSIgcng9IjQiIHJ5PSI0IiBzdHlsZT0ic3Ryb2tlOiMwMDAwMDA7c3Ryb2tlLXdpZHRoOjEuMDsiLz48dGV4dCBmaWxsPSIjMDAwMDAwIiBmb250LWZhbWlseT0ic2Fucy1zZXJpZiIgZm9udC1zaXplPSIxMyIgbGVuZ3RoQWRqdXN0PSJzcGFjaW5nIiB0ZXh0TGVuZ3RoPSIxNTYiIHg9IjEyODkuODMiIHk9IjQ4MC45MjkxIj4mIzE5OTY4OyYjMzkzMTg7JiMyNzQ2ODsmIzIxNDg3OyYjMjAxOTc7JiMzNDk4NzsmIzIyODEwOyYjMjAwMTA7JiMyOTk5MjsmIzI1MTQzOyYjMjU5MTA7JiMzNDI1NTs8L3RleHQ+PC9nPjwhLS1saW5rIHNvbmcgdG8gY29tbWVudC0tPjxnIGlkPSJsaW5rX3NvbmdfY29tbWVudCI+PHBhdGggY29kZUxpbmU9IjEzMCIgZD0iTTEzNjAuNSw0MTEuMzIgQzEzNjAuNSw0NTYuNTYgMTM2MC41LDUyNy4xNyAxMzYwLjUsNTcyLjMyICIgZmlsbD0ibm9uZSIgaWQ9InNvbmctY29tbWVudCIgc3R5bGU9InN0cm9rZTojMDAwMDAwO3N0cm9rZS13aWR0aDoxLjA7Ii8+PGxpbmUgc3R5bGU9InN0cm9rZTojMDAwMDAwO3N0cm9rZS13aWR0aDoxLjA7IiB4MT0iMTM1Ni41IiB4Mj0iMTM2NC41IiB5MT0iNDA3LjMyIiB5Mj0iNDA3LjMyIi8+PGxpbmUgc3R5bGU9InN0cm9rZTojMDAwMDAwO3N0cm9rZS13aWR0aDoxLjA7IiB4MT0iMTM1Ni41IiB4Mj0iMTM2NC41IiB5MT0iNDEwLjMyIiB5Mj0iNDEwLjMyIi8+PGxpbmUgc3R5bGU9InN0cm9rZTojMDAwMDAwO3N0cm9rZS13aWR0aDoxLjA7IiB4MT0iMTM2MC41IiB4Mj0iMTM2MC41IiB5MT0iNDExLjMyIiB5Mj0iNDAzLjMyIi8+PGxpbmUgc3R5bGU9InN0cm9rZTojMDAwMDAwO3N0cm9rZS13aWR0aDoxLjA7IiB4MT0iMTM2MC41IiB4Mj0iMTM2Ni41IiB5MT0iNTgyLjMyIiB5Mj0iNTkwLjMyIi8+PGxpbmUgc3R5bGU9InN0cm9rZTojMDAwMDAwO3N0cm9rZS13aWR0aDoxLjA7IiB4MT0iMTM2MC41IiB4Mj0iMTM1NC41IiB5MT0iNTgyLjMyIiB5Mj0iNTkwLjMyIi8+PGxpbmUgc3R5bGU9InN0cm9rZTojMDAwMDAwO3N0cm9rZS13aWR0aDoxLjA7IiB4MT0iMTM2MC41IiB4Mj0iMTM2MC41IiB5MT0iNTgyLjMyIiB5Mj0iNTkwLjMyIi8+PGVsbGlwc2UgY3g9IjEzNjAuNSIgY3k9IjU3Ni4zMiIgZmlsbD0ibm9uZSIgcng9IjQiIHJ5PSI0IiBzdHlsZT0ic3Ryb2tlOiMwMDAwMDA7c3Ryb2tlLXdpZHRoOjEuMDsiLz48dGV4dCBmaWxsPSIjMDAwMDAwIiBmb250LWZhbWlseT0ic2Fucy1zZXJpZiIgZm9udC1zaXplPSIxMyIgbGVuZ3RoQWRqdXN0PSJzcGFjaW5nIiB0ZXh0TGVuZ3RoPSIxMzAiIHg9IjEzNjEuNSIgeT0iNTEwLjEwOTEiPiYjMTk5Njg7JiMzOTMxODsmIzI3NDY4OyYjMjE0ODc7JiMyMDE5NzsmIzI2Mzc3OyYjMjI4MTA7JiMyMDAxMDsmIzM1NzgwOyYjMzU3NzA7PC90ZXh0PjwvZz48IS0tbGluayBzb25nIHRvIGxpc3Rfc29uZy0tPjxnIGlkPSJsaW5rX3NvbmdfbGlzdF9zb25nIj48cGF0aCBjb2RlTGluZT0iMTMxIiBkPSJNMTM0MC41LDQxMS40MyBDMTM0MC41LDQyMC42NyAxMzQwLjUsNDIxIDEzNDAuNSw0MjEgQzEzNDAuNSw0MjEgMTU4OC42Nyw0MjEgMTU4OC42Nyw0MjEgQzE1ODguNjcsNDIxIDE1ODguNjcsNTIwLjUxIDE1ODguNjcsNTcyLjM4ICIgZmlsbD0ibm9uZSIgaWQ9InNvbmctbGlzdF9zb25nIiBzdHlsZT0ic3Ryb2tlOiMwMDAwMDA7c3Ryb2tlLXdpZHRoOjEuMDsiLz48bGluZSBzdHlsZT0ic3Ryb2tlOiMwMDAwMDA7c3Ryb2tlLXdpZHRoOjEuMDsiIHgxPSIxMzM2LjUiIHgyPSIxMzQ0LjUiIHkxPSI0MDcuNDMiIHkyPSI0MDcuNDMiLz48bGluZSBzdHlsZT0ic3Ryb2tlOiMwMDAwMDA7c3Ryb2tlLXdpZHRoOjEuMDsiIHgxPSIxMzM2LjUiIHgyPSIxMzQ0LjUiIHkxPSI0MTAuNDMiIHkyPSI0MTAuNDMiLz48bGluZSBzdHlsZT0ic3Ryb2tlOiMwMDAwMDA7c3Ryb2tlLXdpZHRoOjEuMDsiIHgxPSIxMzQwLjUiIHgyPSIxMzQwLjUiIHkxPSI0MTEuNDMiIHkyPSI0MDMuNDMiLz48bGluZSBzdHlsZT0ic3Ryb2tlOiMwMDAwMDA7c3Ryb2tlLXdpZHRoOjEuMDsiIHgxPSIxNTg4LjY3IiB4Mj0iMTU5NC42NyIgeTE9IjU4Mi4zOCIgeTI9IjU5MC4zOCIvPjxsaW5lIHN0eWxlPSJzdHJva2U6IzAwMDAwMDtzdHJva2Utd2lkdGg6MS4wOyIgeDE9IjE1ODguNjciIHgyPSIxNTgyLjY3IiB5MT0iNTgyLjM4IiB5Mj0iNTkwLjM4Ii8+PGxpbmUgc3R5bGU9InN0cm9rZTojMDAwMDAwO3N0cm9rZS13aWR0aDoxLjA7IiB4MT0iMTU4OC42NyIgeDI9IjE1ODguNjciIHkxPSI1ODIuMzgiIHkyPSI1OTAuMzgiLz48ZWxsaXBzZSBjeD0iMTU4OC42NyIgY3k9IjU3Ni4zOCIgZmlsbD0ibm9uZSIgcng9IjQiIHJ5PSI0IiBzdHlsZT0ic3Ryb2tlOiMwMDAwMDA7c3Ryb2tlLXdpZHRoOjEuMDsiLz48dGV4dCBmaWxsPSIjMDAwMDAwIiBmb250LWZhbWlseT0ic2Fucy1zZXJpZiIgZm9udC1zaXplPSIxMyIgbGVuZ3RoQWRqdXN0PSJzcGFjaW5nIiB0ZXh0TGVuZ3RoPSIxNDMiIHg9IjEzOTYuNDkiIHk9IjQxOS4yODkxIj4mIzE5OTY4OyYjMzkzMTg7JiMyNzQ2ODsmIzIxNDg3OyYjMjAxOTc7JiMyMzY0NjsmIzIwMTEwOyYjMjI4MTA7JiMyMDAxMDsmIzI3NDY4OyYjMjEzMzM7PC90ZXh0PjwvZz48IS0tbGluayBzb25nX2xpc3QgdG8gY29sbGVjdC0tPjxnIGlkPSJsaW5rX3NvbmdfbGlzdF9jb2xsZWN0Ij48cGF0aCBjb2RlTGluZT0iMTM0IiBkPSJNMTQ3Miw0MTEuMzQgQzE0NzIsNDI3LjU5IDE0NzIsNDM4IDE0NzIsNDM4IEMxNDcyLDQzOCAxMjQ3LDQzOCAxMjQ3LDQzOCBDMTI0Nyw0MzggMTI0Nyw1MjMuOTkgMTI0Nyw1NzIuMzMgIiBmaWxsPSJub25lIiBpZD0ic29uZ19saXN0LWNvbGxlY3QiIHN0eWxlPSJzdHJva2U6IzAwMDAwMDtzdHJva2Utd2lkdGg6MS4wOyIvPjxsaW5lIHN0eWxlPSJzdHJva2U6IzAwMDAwMDtzdHJva2Utd2lkdGg6MS4wOyIgeDE9IjE0NjgiIHgyPSIxNDc2IiB5MT0iNDA3LjM0IiB5Mj0iNDA3LjM0Ii8+PGxpbmUgc3R5bGU9InN0cm9rZTojMDAwMDAwO3N0cm9rZS13aWR0aDoxLjA7IiB4MT0iMTQ2OCIgeDI9IjE0NzYiIHkxPSI0MTAuMzQiIHkyPSI0MTAuMzQiLz48bGluZSBzdHlsZT0ic3Ryb2tlOiMwMDAwMDA7c3Ryb2tlLXdpZHRoOjEuMDsiIHgxPSIxNDcyIiB4Mj0iMTQ3MiIgeTE9IjQxMS4zNCIgeTI9IjQwMy4zNCIvPjxsaW5lIHN0eWxlPSJzdHJva2U6IzAwMDAwMDtzdHJva2Utd2lkdGg6MS4wOyIgeDE9IjEyNDciIHgyPSIxMjUzIiB5MT0iNTgyLjMzIiB5Mj0iNTkwLjMzIi8+PGxpbmUgc3R5bGU9InN0cm9rZTojMDAwMDAwO3N0cm9rZS13aWR0aDoxLjA7IiB4MT0iMTI0NyIgeDI9IjEyNDEiIHkxPSI1ODIuMzMiIHkyPSI1OTAuMzMiLz48bGluZSBzdHlsZT0ic3Ryb2tlOiMwMDAwMDA7c3Ryb2tlLXdpZHRoOjEuMDsiIHgxPSIxMjQ3IiB4Mj0iMTI0NyIgeTE9IjU4Mi4zMyIgeTI9IjU5MC4zMyIvPjxlbGxpcHNlIGN4PSIxMjQ3IiBjeT0iNTc2LjMzIiBmaWxsPSJub25lIiByeD0iNCIgcnk9IjQiIHN0eWxlPSJzdHJva2U6IzAwMDAwMDtzdHJva2Utd2lkdGg6MS4wOyIvPjx0ZXh0IGZpbGw9IiMwMDAwMDAiIGZvbnQtZmFtaWx5PSJzYW5zLXNlcmlmIiBmb250LXNpemU9IjEzIiBsZW5ndGhBZGp1c3Q9InNwYWNpbmciIHRleHRMZW5ndGg9IjE2OSIgeD0iMTMwMS42NyIgeT0iNDM2LjI4OTEiPiYjMTk5Njg7JiMyMDAxMDsmIzI3NDY4OyYjMjEzMzM7JiMyMTQ4NzsmIzIwMTk3OyYjMzQ5ODc7JiMyMjgxMDsmIzIwMDEwOyYjMjk5OTI7JiMyNTE0MzsmIzI1OTEwOyYjMzQyNTU7PC90ZXh0PjwvZz48IS0tbGluayBzb25nX2xpc3QgdG8gY29tbWVudC0tPjxnIGlkPSJsaW5rX3NvbmdfbGlzdF9jb21tZW50Ij48cGF0aCBjb2RlTGluZT0iMTM1IiBkPSJNMTQxMy43NSwzNzkgQzEzOTQuMTcsMzc5IDEzODQsMzc5IDEzODQsMzc5IEMxMzg0LDM3OSAxMzg0LDUxMi4wMSAxMzg0LDU3Mi4xOCAiIGZpbGw9Im5vbmUiIGlkPSJzb25nX2xpc3QtY29tbWVudCIgc3R5bGU9InN0cm9rZTojMDAwMDAwO3N0cm9rZS13aWR0aDoxLjA7Ii8+PGxpbmUgc3R5bGU9InN0cm9rZTojMDAwMDAwO3N0cm9rZS13aWR0aDoxLjA7IiB4MT0iMTQxNy43NSIgeDI9IjE0MTcuNzUiIHkxPSIzNzUiIHkyPSIzODMiLz48bGluZSBzdHlsZT0ic3Ryb2tlOiMwMDAwMDA7c3Ryb2tlLXdpZHRoOjEuMDsiIHgxPSIxNDE0Ljc1IiB4Mj0iMTQxNC43NSIgeTE9IjM3NSIgeTI9IjM4MyIvPjxsaW5lIHN0eWxlPSJzdHJva2U6IzAwMDAwMDtzdHJva2Utd2lkdGg6MS4wOyIgeDE9IjE0MTMuNzUiIHgyPSIxNDIxLjc1IiB5MT0iMzc5IiB5Mj0iMzc5Ii8+PGxpbmUgc3R5bGU9InN0cm9rZTojMDAwMDAwO3N0cm9rZS13aWR0aDoxLjA7IiB4MT0iMTM4NCIgeDI9IjEzOTAiIHkxPSI1ODIuMTgiIHkyPSI1OTAuMTgiLz48bGluZSBzdHlsZT0ic3Ryb2tlOiMwMDAwMDA7c3Ryb2tlLXdpZHRoOjEuMDsiIHgxPSIxMzg0IiB4Mj0iMTM3OCIgeTE9IjU4Mi4xOCIgeTI9IjU5MC4xOCIvPjxsaW5lIHN0eWxlPSJzdHJva2U6IzAwMDAwMDtzdHJva2Utd2lkdGg6MS4wOyIgeDE9IjEzODQiIHgyPSIxMzg0IiB5MT0iNTgyLjE4IiB5Mj0iNTkwLjE4Ii8+PGVsbGlwc2UgY3g9IjEzODQiIGN5PSI1NzYuMTgiIGZpbGw9Im5vbmUiIHJ4PSI0IiByeT0iNCIgc3R5bGU9InN0cm9rZTojMDAwMDAwO3N0cm9rZS13aWR0aDoxLjA7Ii8+PHRleHQgZmlsbD0iIzAwMDAwMCIgZm9udC1mYW1pbHk9InNhbnMtc2VyaWYiIGZvbnQtc2l6ZT0iMTMiIGxlbmd0aEFkanVzdD0ic3BhY2luZyIgdGV4dExlbmd0aD0iMTQzIiB4PSIxMzg1IiB5PSI0NjQuMDA5MSI+JiMxOTk2ODsmIzIwMDEwOyYjMjc0Njg7JiMyMTMzMzsmIzIxNDg3OyYjMjAxOTc7JiMyNjM3NzsmIzIyODEwOyYjMjAwMTA7JiMzNTc4MDsmIzM1NzcwOzwvdGV4dD48L2c+PCEtLWxpbmsgc29uZ19saXN0IHRvIGxpc3Rfc29uZy0tPjxnIGlkPSJsaW5rX3NvbmdfbGlzdF9saXN0X3NvbmciPjxwYXRoIGNvZGVMaW5lPSIxMzYiIGQ9Ik0xNTI1LjIyLDM3OSBDMTU2OS40MSwzNzkgMTYyMC4zMywzNzkgMTYyMC4zMywzNzkgQzE2MjAuMzMsMzc5IDE2MjAuMzMsNTEyLjAxIDE2MjAuMzMsNTcyLjE4ICIgZmlsbD0ibm9uZSIgaWQ9InNvbmdfbGlzdC1saXN0X3NvbmciIHN0eWxlPSJzdHJva2U6IzAwMDAwMDtzdHJva2Utd2lkdGg6MS4wOyIvPjxsaW5lIHN0eWxlPSJzdHJva2U6IzAwMDAwMDtzdHJva2Utd2lkdGg6MS4wOyIgeDE9IjE1MjEuMjIiIHgyPSIxNTIxLjIyIiB5MT0iMzgzIiB5Mj0iMzc1Ii8+PGxpbmUgc3R5bGU9InN0cm9rZTojMDAwMDAwO3N0cm9rZS13aWR0aDoxLjA7IiB4MT0iMTUyNC4yMiIgeDI9IjE1MjQuMjIiIHkxPSIzODMiIHkyPSIzNzUiLz48bGluZSBzdHlsZT0ic3Ryb2tlOiMwMDAwMDA7c3Ryb2tlLXdpZHRoOjEuMDsiIHgxPSIxNTI1LjIyIiB4Mj0iMTUxNy4yMiIgeTE9IjM3OSIgeTI9IjM3OSIvPjxsaW5lIHN0eWxlPSJzdHJva2U6IzAwMDAwMDtzdHJva2Utd2lkdGg6MS4wOyIgeDE9IjE2MjAuMzMiIHgyPSIxNjI2LjMzIiB5MT0iNTgyLjE4IiB5Mj0iNTkwLjE4Ii8+PGxpbmUgc3R5bGU9InN0cm9rZTojMDAwMDAwO3N0cm9rZS13aWR0aDoxLjA7IiB4MT0iMTYyMC4zMyIgeDI9IjE2MTQuMzMiIHkxPSI1ODIuMTgiIHkyPSI1OTAuMTgiLz48bGluZSBzdHlsZT0ic3Ryb2tlOiMwMDAwMDA7c3Ryb2tlLXdpZHRoOjEuMDsiIHgxPSIxNjIwLjMzIiB4Mj0iMTYyMC4zMyIgeTE9IjU4Mi4xOCIgeTI9IjU5MC4xOCIvPjxlbGxpcHNlIGN4PSIxNjIwLjMzIiBjeT0iNTc2LjE4IiBmaWxsPSJub25lIiByeD0iNCIgcnk9IjQiIHN0eWxlPSJzdHJva2U6IzAwMDAwMDtzdHJva2Utd2lkdGg6MS4wOyIvPjx0ZXh0IGZpbGw9IiMwMDAwMDAiIGZvbnQtZmFtaWx5PSJzYW5zLXNlcmlmIiBmb250LXNpemU9IjEzIiBsZW5ndGhBZGp1c3Q9InNwYWNpbmciIHRleHRMZW5ndGg9IjE1NiIgeD0iMTYyMS4zMyIgeT0iNDMxLjMyOTEiPiYjMTk5Njg7JiMyMDAxMDsmIzI3NDY4OyYjMjEzMzM7JiMyMTQ4NzsmIzIwMTk3OyYjMjEyNTM7JiMyMTU0NzsmIzIyODEwOyYjMzkzMTg7JiMyNzQ2ODsmIzI2MzU0OzwvdGV4dD48L2c+PCEtLWxpbmsgc29uZ19saXN0IHRvIHJhbmtfbGlzdC0tPjxnIGlkPSJsaW5rX3NvbmdfbGlzdF9yYW5rX2xpc3QiPjxwYXRoIGNvZGVMaW5lPSIxMzciIGQ9Ik0xNDk0LjUsNDExLjMyIEMxNDk0LjUsNDU2LjU2IDE0OTQuNSw1MjcuMTcgMTQ5NC41LDU3Mi4zMiAiIGZpbGw9Im5vbmUiIGlkPSJzb25nX2xpc3QtcmFua19saXN0IiBzdHlsZT0ic3Ryb2tlOiMwMDAwMDA7c3Ryb2tlLXdpZHRoOjEuMDsiLz48bGluZSBzdHlsZT0ic3Ryb2tlOiMwMDAwMDA7c3Ryb2tlLXdpZHRoOjEuMDsiIHgxPSIxNDkwLjUiIHgyPSIxNDk4LjUiIHkxPSI0MDcuMzIiIHkyPSI0MDcuMzIiLz48bGluZSBzdHlsZT0ic3Ryb2tlOiMwMDAwMDA7c3Ryb2tlLXdpZHRoOjEuMDsiIHgxPSIxNDkwLjUiIHgyPSIxNDk4LjUiIHkxPSI0MTAuMzIiIHkyPSI0MTAuMzIiLz48bGluZSBzdHlsZT0ic3Ryb2tlOiMwMDAwMDA7c3Ryb2tlLXdpZHRoOjEuMDsiIHgxPSIxNDk0LjUiIHgyPSIxNDk0LjUiIHkxPSI0MTEuMzIiIHkyPSI0MDMuMzIiLz48bGluZSBzdHlsZT0ic3Ryb2tlOiMwMDAwMDA7c3Ryb2tlLXdpZHRoOjEuMDsiIHgxPSIxNDk0LjUiIHgyPSIxNTAwLjUiIHkxPSI1ODIuMzIiIHkyPSI1OTAuMzIiLz48bGluZSBzdHlsZT0ic3Ryb2tlOiMwMDAwMDA7c3Ryb2tlLXdpZHRoOjEuMDsiIHgxPSIxNDk0LjUiIHgyPSIxNDg4LjUiIHkxPSI1ODIuMzIiIHkyPSI1OTAuMzIiLz48bGluZSBzdHlsZT0ic3Ryb2tlOiMwMDAwMDA7c3Ryb2tlLXdpZHRoOjEuMDsiIHgxPSIxNDk0LjUiIHgyPSIxNDk0LjUiIHkxPSI1ODIuMzIiIHkyPSI1OTAuMzIiLz48ZWxsaXBzZSBjeD0iMTQ5NC41IiBjeT0iNTc2LjMyIiBmaWxsPSJub25lIiByeD0iNCIgcnk9IjQiIHN0eWxlPSJzdHJva2U6IzAwMDAwMDtzdHJva2Utd2lkdGg6MS4wOyIvPjx0ZXh0IGZpbGw9IiMwMDAwMDAiIGZvbnQtZmFtaWx5PSJzYW5zLXNlcmlmIiBmb250LXNpemU9IjEzIiBsZW5ndGhBZGp1c3Q9InNwYWNpbmciIHRleHRMZW5ndGg9IjE2OSIgeD0iMTQ5NS41IiB5PSI0OTUuMTA5MSI+JiMxOTk2ODsmIzIwMDEwOyYjMjc0Njg7JiMyMTMzMzsmIzIxNDg3OyYjMjAxOTc7JiMzNDk4NzsmIzIyODEwOyYjMjAwMTA7JiMyOTk5MjsmIzI1MTQzOyYjMzU3ODA7JiMyMDk5ODs8L3RleHQ+PC9nPjwhLS1saW5rIGNvbW1lbnQgdG8gdXNlcl9zdXBwb3J0LS0+PGcgaWQ9ImxpbmtfY29tbWVudF91c2VyX3N1cHBvcnQiPjxwYXRoIGNvZGVMaW5lPSIxNDAiIGQ9Ik0xMzAwLjk0LDYyNyBDMTI5My4yOSw2MjcgMTI5NS42Nyw2MjcgMTI5NS42Nyw2MjcgQzEyOTUuNjcsNjI3IDEyOTUuNjcsNzAyLjYxIDEyOTUuNjcsNzQ3Ljk1ICIgZmlsbD0ibm9uZSIgaWQ9ImNvbW1lbnQtdXNlcl9zdXBwb3J0IiBzdHlsZT0ic3Ryb2tlOiMwMDAwMDA7c3Ryb2tlLXdpZHRoOjEuMDsiLz48bGluZSBzdHlsZT0ic3Ryb2tlOiMwMDAwMDA7c3Ryb2tlLXdpZHRoOjEuMDsiIHgxPSIxMzA0Ljk0IiB4Mj0iMTMwNC45NCIgeTE9IjYyMyIgeTI9IjYzMSIvPjxsaW5lIHN0eWxlPSJzdHJva2U6IzAwMDAwMDtzdHJva2Utd2lkdGg6MS4wOyIgeDE9IjEzMDEuOTQiIHgyPSIxMzAxLjk0IiB5MT0iNjIzIiB5Mj0iNjMxIi8+PGxpbmUgc3R5bGU9InN0cm9rZTojMDAwMDAwO3N0cm9rZS13aWR0aDoxLjA7IiB4MT0iMTMwMC45NCIgeDI9IjEzMDguOTQiIHkxPSI2MjciIHkyPSI2MjciLz48bGluZSBzdHlsZT0ic3Ryb2tlOiMwMDAwMDA7c3Ryb2tlLXdpZHRoOjEuMDsiIHgxPSIxMjk1LjY3IiB4Mj0iMTMwMS42NyIgeTE9Ijc1Ny45NSIgeTI9Ijc2NS45NSIvPjxsaW5lIHN0eWxlPSJzdHJva2U6IzAwMDAwMDtzdHJva2Utd2lkdGg6MS4wOyIgeDE9IjEyOTUuNjciIHgyPSIxMjg5LjY3IiB5MT0iNzU3Ljk1IiB5Mj0iNzY1Ljk1Ii8+PGxpbmUgc3R5bGU9InN0cm9rZTojMDAwMDAwO3N0cm9rZS13aWR0aDoxLjA7IiB4MT0iMTI5NS42NyIgeDI9IjEyOTUuNjciIHkxPSI3NTcuOTUiIHkyPSI3NjUuOTUiLz48ZWxsaXBzZSBjeD0iMTI5NS42NyIgY3k9Ijc1MS45NSIgZmlsbD0ibm9uZSIgcng9IjQiIHJ5PSI0IiBzdHlsZT0ic3Ryb2tlOiMwMDAwMDA7c3Ryb2tlLXdpZHRoOjEuMDsiLz48dGV4dCBmaWxsPSIjMDAwMDAwIiBmb250LWZhbWlseT0ic2Fucy1zZXJpZiIgZm9udC1zaXplPSIxMyIgbGVuZ3RoQWRqdXN0PSJzcGFjaW5nIiB0ZXh0TGVuZ3RoPSIxNjkiIHg9IjExMjUuNjciIHk9IjY4OC4xMjkxIj4mIzE5OTY4OyYjMjAwMTA7JiMzNTc4MDsmIzM1NzcwOyYjMjE0ODc7JiMyMDE5NzsmIzM0OTg3OyYjMjI4MTA7JiMyMDAxMDsmIzI5OTkyOyYjMjUxNDM7JiMyODg1NzsmIzM2MTkwOzwvdGV4dD48L2c+PCEtLVNSQz1baExQUkpuajc1N3hkTHVweTRiRjltZ0pEWW5MNVFiZkxnbGhJanB3WW5MeDFZbE1ra3ZTYUxYQTlmYTEwNDlpcTk5MHdmUDEyWXVmWVNxaW1UYWhfWjZUdF9JeXdFc1RzRlVFenM5N2dieExjbGxGREVUeXZTeXhTRzV4cHNsc2R3VW5UdWVfcjJORDFxSWdJOFBNSGdjWW9MUXQ4STNVaVVQdFJBQWdJUVFBNzR1Wnl4YWg1WEpiM2p4TklMeGdnNi1ZN1VTTUl3U3dOWGc3Vlh5TXhBYTQxTjNUQWlpNmxGZndPYTNMQmlRZWU4dk5BWWVRb1JkRlZ0THAxcHRTY0Mtb0dwdkhJMEljUVhNeFZfbHd4RXRWR3IxR0FHVHotSkk2djdGcmVLYmFrZTdrSUtQb05aRW1Oam9ROVlRcWZGemhvYTljeFRVSWlOa0JEUHpJaUdXQXdKcm1KSk5heVJnc3VVcF9udGl2QWNZT1JBRWlId052dlhubE5RVXc2OEQ3VFliOFM3N2RwNWZtUE9qc3JmenZiMnJ5bHlTU01UU3Nxb194MTQ0QWdJMUdYN2NjUmlZNmdIQ3lUYWNjNEVqRnZGN01MZ1VBM0pGYjEwTGNBTGxMVDg1bEV1Ynp1ekpZUm51VmRxLXhNdklHbXBVa1FGQUZQdkc4MmRmWUp0dGtqdG9YT0Jha0FvZTJWdnVVMV9JVERqdGJBV1JDQUFUMDJBYWNNUjJiYjZNWC1UeE9Gd0l4bm56MUJUajVJVDJxZ2pqalN4N05OQUwzTFl2ODhPYU0wdHZwV1pHeDVJRlNhSXBVWURGWlcwbHpTZnYyWThIRDdQZG5GSDlfbVFXRHRFeXhzWF94czFRSVlLZWY3RWVxQnZ6SzlHbWd2THJNdlFBNmlpX04xc3d3ZGZIdUdxVEpGM0EzVm41TTlWLTc1RjU4WXp4SUJUelVwVVVWVFhqQ3Vjb09WX0VtYnZESktqUmFPTGEwb0xlZkg1VEVBMW44azFhbUszem84YXdIUzlsXzlETW1qVVNyRXdYc2FZQjRhMFFXV0o0QU90ampaMDh5VEJzXzExUXZoNWVhWmZYakdCNXZQbmlzaFQ4YU93dzItOGhiYU9JTmRxZ3cwanR2TEZCZG90a3l3QnF6dWpNYjhWZDJhMUFhUHRiWjZjeVYwYkFQemh6dGpScEw1eFYtdG1rNFNEMkhqV1VBM3plWFJMdTBaaVVGTDVUNzdNTUtrS1k4NDVFRGN3NDllNGItIC1oM2Q3R3lMd0FrZzY3QWVEMV9FSGM4ZXN2dFR2TnV3cnpUSWhKWDZadmMwODNCaHdZOFB6cS1xa3VTdExvVUd2blVaZWQxZ1ozdV9KTmlWZ3JSbjhHSWNFQTMtWGZlQXlLZTRKMlozS0NxZDhHQ01uZnFsb01BV196X090RmRhaWZBUWJTU1FiSFFxUUZpd0k3clhpdHNrMXl4UVg5amR0TnJteGpTRFhoVGRMT1lxWk5WMzFoTTIyNG5mTFpaYmx4c2RfeEt2Z0Y3d1o2U0daSVh3NG5LYmpNYk4tZTZidWdfSl9nM2J4N19jOFFGQ3R4S2c1RjcyM1ZXNWpSX0dtMFBtTzg5ajVZVkU0ZVNFUDhwdko4cnMyVTdlM3VVTHB6eHBoX1JqQmlrNnJCZm9UNmJieXoyWU5xbnlZUl9fOEZVWnFzZWthb1U2M05tNUFqWF9kU2k2Y2x5bmxhYnFNUHdERGJqWGctQVBhbkM0eGV1MG9YQnROX2ZscnFkZ2hycHM0SUttZW9KaEtvWElhQTFGMzB5Q3ZiZVZNX0g3bVczdkhXYTR4WndMbWt3ejNGeThNN3NLSHlYbkZIQkNmLWFBYVdheEdRelZPZEdBck02VGN2Qkc1WFFJaTl1OUdSek84T19fRkxzMFRDWlJFMUY0ZkdRcG1PMGZhdkRLMHhlN1JhOEpDYTM2bERjeUNkZDJueU1RM2NIdXJuQVV4bEt3RHJwWThXbG9ESDA2UElnZVhUZXo3SEpENENiSDBGNGJpTDhCdlM2WDMxRjF1NE5DS3VPV2ZtUEg4V1g4YThoNzdiZFpGODlwS2tjR0ZsWlhzQURGQ1ZtMDBdLS0+PC9nPjwvc3ZnPg==;" vertex="1" parent="1">
            <mxGeometry x="-420" y="1370" width="1785" height="821" as="geometry" />
          </mxCell>
        </UserObject>
      </root>
    </mxGraphModel>
  </diagram>
</mxfile>
